<svg width="41" height="41" viewBox="0 0 41 41" fill="none" xmlns="http://www.w3.org/2000/svg">
<mask id="mask0_175_19" style="mask-type:alpha" maskUnits="userSpaceOnUse" x="0" y="0" width="41" height="41">
<rect width="40" height="40" transform="matrix(-1 0 0 1 40.8766 0.224243)" fill="#D9D9D9"/>
</mask>
<g mask="url(#mask0_175_19)">
<path d="M17.057 31.5855L34.46 31.5855C34.8766 31.5855 35.2193 31.4512 35.4879 31.1826C35.7562 30.914 35.8904 30.5713 35.8904 30.1547C35.8904 29.0713 35.8604 28.157 35.8004 27.4118C35.7401 26.6665 35.6683 25.9975 35.585 25.4047H23.7237C22.0109 25.4047 20.5595 24.8029 19.3695 23.5993C18.1798 22.3956 17.585 20.9095 17.585 19.1409C17.585 17.8354 17.8882 16.6618 18.4945 15.6201C19.1012 14.5784 20.099 13.7891 21.4879 13.2522L26.71 11.2659C25.21 10.4512 23.7308 9.84703 22.2725 9.45342C20.8141 9.05981 19.2701 8.86301 17.6404 8.86301C14.4182 8.86301 11.659 9.9487 9.36288 12.1201C7.06649 14.2915 5.9183 16.9744 5.9183 20.1688C5.9183 23.3077 6.99468 25.9952 9.14746 28.2313C11.3002 30.4675 13.9368 31.5855 17.057 31.5855ZM35.21 22.6409C34.6914 20.7056 33.9459 18.9394 32.9737 17.3422C32.0015 15.745 30.8025 14.3168 29.3766 13.0576L22.5987 15.8493C21.8765 16.1179 21.3209 16.5391 20.932 17.113C20.5432 17.6872 20.3487 18.3631 20.3487 19.1409C20.3487 20.1223 20.6844 20.9511 21.3558 21.6272C22.0272 22.303 22.8814 22.6409 23.9183 22.6409H35.21Z" fill="#1C1B1F"/>
</g>
</svg>
