<?xml version="1.0" encoding="utf-8"?>
<!-- Generator: Adobe Illustrator 25.4.1, SVG Export Plug-In . SVG Version: 6.00 Build 0)  -->
<svg version="1.1" id="Layer_1" xmlns="http://www.w3.org/2000/svg" xmlns:xlink="http://www.w3.org/1999/xlink" x="0px" y="0px"
	 viewBox="0 0 750 500" style="enable-background:new 0 0 750 500;" xml:space="preserve">
<style type="text/css">
	.st0{fill:#FFFFFF;}
	.st1{fill:#CFECFF;}
	.st2{fill:#6CA8BC;}
	.st3{fill:#EBA58E;}
	.st4{fill:#DD8C76;}
	.st5{fill:#5297F4;}
	.st6{fill:#3985D8;}
	.st7{fill:#5DABFF;}
	.st8{fill:#422C4F;}
	.st9{fill:#A34262;}
	.st10{fill:#DF4268;}
	.st11{fill:#495375;}
	.st12{fill:#C7D2D7;}
	.st13{fill:#99A3B0;}
	.st14{fill:#F2C8C2;}
	.st15{fill:#E36E90;}
	.st16{fill:#F0BF6C;}
	.st17{fill:#EBA25D;}
	.st18{enable-background:new    ;}
	.st19{fill:#CC6164;}
	.st20{font-family:'ArialMT';}
	.st21{font-size:20.1199px;}
	.st22{fill:#454F6B;}
	.st23{fill:#F2C9AD;}
	.st24{fill:#81D3CF;}
	.st25{opacity:0.3;fill:#422C4F;enable-background:new    ;}
	.st26{fill:#6BC5FF;}
	.st27{fill:url(#SVGID_1_);}
	.st28{fill:url(#SVGID_00000130607367006719486500000002930736218557480628_);}
	.st29{fill:url(#SVGID_00000065791706426610676970000005596082394458159003_);}
	.st30{fill:url(#SVGID_00000066509163632389575980000007331825075722534823_);}
	.st31{fill:url(#SVGID_00000052086944778901748240000017869161598264365216_);}
	.st32{fill:url(#SVGID_00000170254463532240070400000006418056989508767651_);}
	.st33{fill:url(#SVGID_00000133531727638934371650000017476758143748048552_);}
	.st34{fill:url(#SVGID_00000118374160481560766380000011082349204583542178_);}
	.st35{fill:url(#SVGID_00000150820023747320025590000009502565529515710649_);}
	.st36{fill:url(#SVGID_00000172436827562664429850000015243969473523605941_);}
	.st37{fill:url(#SVGID_00000137112973306317818950000013785465698563597998_);}
	.st38{fill:url(#SVGID_00000096025879916010100440000005224548484803130023_);}
	.st39{fill:url(#SVGID_00000153685614917828684110000017382585601545893517_);}
</style>
<g id="BACKGROUND">
	<rect class="st0" width="750" height="500"/>
</g>
<g id="OBJECT">
	<g>
		<g>
			<path class="st1" d="M684.9,407.6H83.2C74.8,397,84,377.9,95,369.9c11-8,24.8-12.2,33.8-22.3c14.2-15.8,11.8-39.8,10.5-61
				s1.6-46.7,20.4-56.6c17.3-9.2,39.1,0,57.9-5.5c18.6-5.5,29.8-23.7,41.1-39.4c38-52.4,96.3-89.6,159.8-101.9
				c27.3-5.3,56.5-6,82.2,4.7c25.7,10.8,47,34.8,48.5,62.6c1.1,19.7-7.5,38.4-11.8,57.6c-4.3,19.2-3,42.5,12.7,54.4
				c12.7,9.7,30.1,8.6,46,10.6c15.8,2,34,11.2,34.4,27.1c0.5,17.3-20.7,31.2-16.4,48c2.7,10.2,13.9,15.7,24.3,17.5
				c10.4,1.8,21.5,1.5,31,6.2C679,376.7,690.9,398.9,684.9,407.6z"/>
			<g>
				<path class="st1" d="M259.9,131.8H102.3c-1.6-4,1.8-8.4,5.7-10c3.9-1.7,8.4-1.2,12.6-0.9c4.2,0.4,8.8,0.6,12.5-1.4
					c7.3-3.9,8.2-13.6,11.5-21.2c4.9-11.3,17.2-18.9,29.5-18.4c12.3,0.5,23.9,9.2,27.8,20.9c2,6,2.5,13.1,7.1,17.4
					c4.9,4.6,12.6,4.3,19,2.5c6.4-1.8,12.7-4.7,19.4-4.6C254.3,116.4,260.3,125.2,259.9,131.8z"/>
				<path class="st1" d="M485.5,59.7H341.4c3.2-7.5,9.7-14.1,17.4-16.7s16.5-1.9,23.6,2c4.4,2.4,8.4,6,13.3,6.7
					c7.8,1.2,14.5-4.9,21.1-9.3C428,35,442,32.2,455.2,34.7C468.3,37.2,477.7,48.8,485.5,59.7z"/>
				<path class="st1" d="M678,130.7H543.5c0.5-4.3,3.3-9.4,6.8-12c3.5-2.6,8.2-3.5,12.4-2.6c3.3,0.7,6.4,2.5,9.8,2.8
					c5.3,0.5,10.3-2.7,14.1-6.4s7-8.2,11.3-11.3c5.7-4.1,13.2-5.5,19.9-3.8c6.8,1.7,12.7,6.5,15.8,12.8c1.3,2.7,2.1,5.6,3.5,8.3
					c1.4,2.7,3.5,5.2,6.3,6c4.8,1.4,9.5-2.1,14.3-3.4C665.2,119,674.2,124,678,130.7z"/>
			</g>
		</g>
		<g>
			<g>
				<ellipse class="st2" cx="366.3" cy="458.7" rx="223.1" ry="7.5"/>
				<g>
					<g>
						<g>
							<g>
								<path class="st3" d="M474.6,220h14.2c2.6,0,4.8,2.1,4.8,4.8v8.8c0,2.6-2.1,4.8-4.8,4.8h-11.5v-3.5l0,0
									c-3.5,0-6.8-1.4-9.2-3.8l-1.7-1.7L474.6,220z"/>
								<polygon class="st3" points="474.6,220 466.4,229.4 431,221.2 435.9,208.1 								"/>
								<polygon class="st4" points="435.9,208.1 437.7,208.6 438.2,222.8 431,221.2 								"/>
								<path class="st5" d="M368.2,157.5L368.2,157.5c4.7-3.7,11.4-3,15.2,1.5l36.7,42.5l6.6,2.2l-6.2,16.5l-3.5-0.8
									c-5.5-1.2-10.5-4-14.4-8.1L367,173.9C362.5,169.1,363.1,161.5,368.2,157.5z"/>
								<path class="st6" d="M420.4,220.7l0.2-0.5l6.2-16.5l0.6-1.6c0.3-0.9,1.4-1.4,2.3-1.1l6.1,2.3c0.9,0.3,1.4,1.4,1.1,2.3
									l-0.5,1.3l-5.8,15.4l-0.7,1.9c-0.3,0.9-1.4,1.4-2.3,1.1l-6.1-2.3C420.6,222.7,420.1,221.7,420.4,220.7z"/>
								<path class="st7" d="M381.2,160.8c-3.4-4-9.1-5-13.7-2.6c0.3-0.2,0.5-0.5,0.8-0.7l0,0c4.7-3.7,11.4-3,15.2,1.5l36.7,42.5
									l6.6,2.2l-1,2.6l-7.4-2.5L381.2,160.8z"/>
							</g>
							<g>
								<path class="st8" d="M381,246l76.4,20.3c13.2,3.5,19.4,18.7,12.3,30.4l-44.6,74.3l-24.8-11l35.7-67.8l-72.6-15.2
									c-14-2.9-22.3-17.5-17.6-31.1l0,0H381z"/>
								<g>
									<path class="st3" d="M403.6,365.1l1.9-2.8l14.1,6.3l-3.3,6l-15.7-4.4C401.5,368.5,402.5,366.8,403.6,365.1z"/>
									<path class="st0" d="M407.5,377.3l1.3,3.3l-1.8-1.2c-0.7-0.5-1.5-0.8-2.4-0.8h-8.2c1.2-2.9,2.6-5.7,4.1-8.5l15.7,4.4
										l-0.9,1.7h-7.2C407.7,376.3,407.3,376.8,407.5,377.3z"/>
									<path class="st8" d="M425.6,391.7h-33.3l0.6-2.4c0.9-3.6,2.1-7.2,3.6-10.7h8.2c0.8,0,1.7,0.3,2.4,0.8l1.8,1.2l-1.3-3.3
										c-0.2-0.5,0.2-1,0.7-1h7.2l5.3,5c2.4,2.3,5.6,3.5,8.9,3.5h3.6c3.5,0,6.6,2,8.2,4.9l-6.9,1.2
										C431.5,391.4,428.5,391.7,425.6,391.7z"/>
									<path class="st0" d="M425.6,391.7c3,0,5.9-0.3,8.8-0.8l6.9-1.2c0.7,1.2,1.1,2.6,1.1,4.1l-10.5,1c-1.7,0.1-3.3,0.2-5,0.2
										h-35.5l0.9-3.3L425.6,391.7L425.6,391.7z"/>
									<polygon class="st8" points="405.5,362.3 419.6,368.6 418.1,371.4 402.7,366.6 									"/>
								</g>
							</g>
						</g>
						<g>
							<g>
								<path class="st9" d="M498.9,239.2h3.6l9.3,32.9c7.3,25.7,4.3,53.2-8.2,76.8l-4.5,1.7L498.9,239.2z"/>
								<path class="st10" d="M511.8,272l-9.3-32.9h3.4l19.1,70.8c1.7,6.4,7.5,10.8,14.1,10.8c0.5,0,0.9,0.4,0.9,0.9v13.5
									l-36.3,13.7C516.1,325.2,519.1,297.7,511.8,272z"/>
							</g>
							<g>
								<circle class="st8" cx="542.5" cy="406.2" r="50.7"/>
								<circle class="st11" cx="542.5" cy="406.2" r="36.5"/>
								<circle class="st12" cx="542.5" cy="406.2" r="29.8"/>
								<path class="st13" d="M542.5,376.3c5.6,0,10.9,1.6,15.4,4.3c-2.1-0.5-4.2-0.8-6.5-0.8c-14.6,0-26.4,11.8-26.4,26.4
									c0,14.6,11.8,26.4,26.4,26.4c2.2,0,4.4-0.3,6.5-0.8c-4.5,2.7-9.8,4.3-15.4,4.3c-16.5,0-29.8-13.4-29.8-29.8
									C512.6,389.7,526,376.3,542.5,376.3z"/>
								<circle class="st13" cx="542.5" cy="406.2" r="13.2"/>
								<ellipse class="st9" cx="542.5" cy="406.2" rx="8.9" ry="8.9"/>
							</g>
							<g>
								<circle class="st8" cx="281.8" cy="406.2" r="50.7"/>
								<circle class="st11" cx="281.8" cy="406.2" r="36.5"/>
								<circle class="st12" cx="281.8" cy="406.2" r="29.8"/>
								<path class="st13" d="M281.8,376.3c5.6,0,10.9,1.6,15.4,4.3c-2.1-0.5-4.2-0.8-6.5-0.8c-14.6,0-26.4,11.8-26.4,26.4
									c0,14.6,11.8,26.4,26.4,26.4c2.2,0,4.4-0.3,6.5-0.8c-4.5,2.7-9.8,4.3-15.4,4.3c-16.5,0-29.8-13.4-29.8-29.8
									C252,389.7,265.3,376.3,281.8,376.3z"/>
								<circle class="st13" cx="281.8" cy="406.2" r="13.2"/>
								<ellipse class="st9" cx="281.8" cy="406.2" rx="8.9" ry="8.9"/>
							</g>
							<g>
								<g>
									<path class="st0" d="M540,339c-26.1,0.8-48.5,19.1-55.4,44.3l-1.1,4.1l-1.2,0.6l2.4-8.5c7-25.2,29.3-43.5,55.4-44.3
										c0.7,0,1.4,0,2,0c11.3,0,22,2.9,31.5,8.4l-1.7,2.9c-9.1-4.9-19.2-7.5-29.8-7.5C541.4,338.9,540.7,339,540,339z"/>
									<path class="st14" d="M535.2,361.9l-51.8,25.5l1.1-4.1c7-25.2,29.3-43.5,55.4-44.3c0.7,0,1.4,0,2,0
										c10.6,0,20.7,2.6,29.8,7.5l-9.3,15.5L535.2,361.9L535.2,361.9z"/>
								</g>
								<path class="st10" d="M479.8,391.8H504c10.9,0,21.3-4.3,29-12l0,0c7.7-7.7,18.1-12,29-12h28.7l-9.1-9.1
									c-10.5-10.5-24.7-16.4-39.6-16.4l0,0c-19.1,0-36.9,9.8-47.2,25.9L479.8,391.8z"/>
							</g>
							<path class="st10" d="M498.9,239.2l9.3,32.9c7.4,26.3,4.2,54.6-9.1,78.5l-4.6,8.4c-13.1,23.7-38.1,38.4-65.1,38.4H200.8
								l8.2-29.7c8.1-29.3,26.9-54.5,52.8-70.5l14.8-9.2h127.1v5.6c0,3.7-2.4,7-5.9,8.1l0,0c-13.6,4.6-23.4,16.6-25.1,30.8l0,0
								c-2.7,22.2,14.6,41.8,37,41.8h18.6c17.8,0,34.4-9.1,44-24.2l8.6-13.6c9.5-15,12.8-33.1,9.1-50.4l-10-46.9H498.9z"/>
							<path class="st8" d="M276.6,287.9H414v-16.3H304.4c-7.6,0-14.9,3.1-20.2,8.5L276.6,287.9z"/>
							<g>
								<path class="st14" d="M356.5,399.5h61.7c27.9,0,53.6-15.2,67.1-39.5l4.6-8.4c13.6-24.6,16.9-53.1,9.3-80.2
									c-2.5-8.7-1.3-18.2,3.1-26.1c0.6-1.1,0.2-2.5-0.9-3.1c-1.1-0.6-2.5-0.2-3.1,0.9c-5,8.9-6.3,19.7-3.6,29.6
									c7.3,25.9,4.2,53.2-8.9,76.8l-4.6,8.4c-12.7,23-36.9,37.2-63.2,37.2h-61.7c-1.2,0-2.3,1-2.3,2.3S355.2,399.5,356.5,399.5z"
									/>
							</g>
							<path class="st9" d="M354.2,388.4H212.8l2.2,2.2c3.5,3.5,8.1,5.4,13,5.4h111.3C345.2,396,350.7,393.2,354.2,388.4
								L354.2,388.4z"/>
							<g>
								<circle class="st13" cx="292.5" cy="381.1" r="30.6"/>
								<g>
									<path class="st11" d="M292.5,404.6c13,0,23.5-10.5,23.5-23.5s-10.5-23.5-23.5-23.5c-13,0-23.5,10.5-23.5,23.5
										S279.5,404.6,292.5,404.6z M292.5,360.1c11.6,0,21,9.4,21,21s-9.4,21-21,21s-21-9.4-21-21S280.9,360.1,292.5,360.1z"/>
								</g>
								<g>
									<g>
										<path class="st11" d="M277.2,382.3h30.5c0.7,0,1.3-0.6,1.3-1.3s-0.6-1.3-1.3-1.3h-30.5c-0.7,0-1.3,0.6-1.3,1.3
											S276.5,382.3,277.2,382.3z"/>
									</g>
									<g>
										<path class="st11" d="M279.8,377.3h25.3c0.7,0,1.3-0.6,1.3-1.3s-0.6-1.3-1.3-1.3h-25.3c-0.7,0-1.3,0.6-1.3,1.3
											S279.1,377.3,279.8,377.3z"/>
									</g>
									<g>
										<path class="st11" d="M283.4,372.3h18.2c0.7,0,1.3-0.6,1.3-1.3s-0.6-1.3-1.3-1.3h-18.2c-0.7,0-1.3,0.6-1.3,1.3
											S282.7,372.3,283.4,372.3z"/>
									</g>
									<g>
										<path class="st11" d="M287.6,367.3h9.8c0.7,0,1.3-0.6,1.3-1.3s-0.6-1.3-1.3-1.3h-9.8c-0.7,0-1.3,0.6-1.3,1.3
											C286.3,366.8,286.9,367.3,287.6,367.3z"/>
									</g>
									<g>
										<path class="st11" d="M279.8,387.3h25.3c0.7,0,1.3-0.6,1.3-1.3s-0.6-1.3-1.3-1.3h-25.3c-0.7,0-1.3,0.6-1.3,1.3
											S279.1,387.3,279.8,387.3z"/>
									</g>
									<g>
										<path class="st11" d="M283.4,392.3h18.2c0.7,0,1.3-0.6,1.3-1.3s-0.6-1.3-1.3-1.3h-18.2c-0.7,0-1.3,0.6-1.3,1.3
											S282.7,392.3,283.4,392.3z"/>
									</g>
									<g>
										<path class="st11" d="M287.6,397.4h9.8c0.7,0,1.3-0.6,1.3-1.3s-0.6-1.3-1.3-1.3h-9.8c-0.7,0-1.3,0.6-1.3,1.3
											C286.3,396.8,286.9,397.4,287.6,397.4z"/>
									</g>
								</g>
							</g>
							<g>
								<path class="st15" d="M259.5,314.9L259.5,314.9c14.5-8.8,31.2-13.5,48.3-13.5h5.7c29,0,53.6,23.7,53.6,52.7
									c0,13.1-4.8,25.1-12.8,34.4h-39.9h-39.9h-61.6l5.4-19.3C224.6,346.5,239.4,327.1,259.5,314.9z"/>
								<path class="st10" d="M267.6,334.6L267.6,334.6c10.7-6.5,22.9-9.9,35.3-9.9h4.2c21.2,0,39.2,17.4,39.2,38.6
									c0,9.6-3.5,18.4-9.4,25.2h-29.2h-29.2h-45.1l4-14.1C242.1,357.7,252.9,343.5,267.6,334.6z"/>
							</g>
							<g>
								<g>
									<path class="st11" d="M267,380.6h47.6c0.7,0,1.4-0.6,1.4-1.4s-0.6-1.4-1.4-1.4H267c-0.7,0-1.4,0.6-1.4,1.4
										S266.2,380.6,267,380.6z"/>
								</g>
								<g>
									<path class="st11" d="M268.4,375.3H316c0.7,0,1.4-0.6,1.4-1.4s-0.6-1.4-1.4-1.4h-47.6c-0.7,0-1.4,0.6-1.4,1.4
										S267.7,375.3,268.4,375.3z"/>
								</g>
								<g>
									<path class="st11" d="M269.9,369.9h47.6c0.7,0,1.4-0.6,1.4-1.4s-0.6-1.4-1.4-1.4h-47.6c-0.7,0-1.4,0.6-1.4,1.4
										S269.2,369.9,269.9,369.9z"/>
								</g>
								<g>
									<path class="st11" d="M271.4,364.6H319c0.7,0,1.4-0.6,1.4-1.4s-0.6-1.4-1.4-1.4h-47.6c-0.7,0-1.4,0.6-1.4,1.4
										S270.6,364.6,271.4,364.6z"/>
								</g>
								<g>
									<path class="st11" d="M272.8,359.2h47.6c0.7,0,1.4-0.6,1.4-1.4s-0.6-1.4-1.4-1.4h-47.6c-0.7,0-1.4,0.6-1.4,1.4
										S272.1,359.2,272.8,359.2z"/>
								</g>
							</g>
							<path class="st9" d="M403.7,287.9H276.6l0,0c2.8,2.8,6.6,4.4,10.6,4.4h104.8C396.3,292.3,400.4,290.7,403.7,287.9
								L403.7,287.9z"/>
							<path class="st10" d="M480,239.2h25.9h12v-24.3h-8.2c-7.1,0-14,1.5-20.4,4.5l-6.1,2.8c-3.9,1.8-6,6.2-4.9,10.4L480,239.2z"/>
							<g>
								<rect x="517.9" y="214.9" class="st14" width="4" height="24.3"/>
								<rect x="521.9" y="214.9" class="st0" width="2" height="24.3"/>
							</g>
							<g>
								<g>
									<path class="st12" d="M216.7,284.4c-0.5-0.5-0.5-1.4,0-1.9c0.5-0.5,1.4-0.5,1.9,0l11.3,11.3h-3.8L216.7,284.4z"/>
									<path class="st0" d="M229.9,293.8l18.4,18.4c0.5,0.5,0.5,1.4,0,1.9c-0.3,0.3-0.6,0.4-1,0.4s-0.7-0.1-1-0.4l-20.3-20.3
										L229.9,293.8L229.9,293.8z"/>
								</g>
								<g>
									<path class="st0" d="M285.3,299h76.3c1.2,0,2.3-1,2.3-2.3c0-1.2-1-2.3-2.3-2.3h-76.3c-5.4,0-10.6-2.1-14.4-6
										c-4.7-4.7-11-7.3-17.6-7.3h-74.2c-1.2,0-2.3,1-2.3,2.3s1,2.3,2.3,2.3h74.2c5.4,0,10.6,2.1,14.4,6
										C272.4,296.4,278.7,299,285.3,299z"/>
								</g>
							</g>
						</g>
						<polygon class="st9" points="498.9,239.2 480,239.2 480.4,241.2 499.5,241.2 						"/>
						<g>
							<rect x="147" y="182.6" class="st16" width="133.4" height="98.6"/>
							<rect x="143.1" y="166.5" class="st16" width="141" height="16.1"/>
							<rect x="147" y="182.6" class="st17" width="133.4" height="7.8"/>
							<g>
								<text transform="matrix(1 0 0 1 160.9845 224.4713)" class="st18"><tspan x="0" y="0" class="st19 st20 st21">SHOP.CO</tspan><tspan x="0" y="24.1" class="st19 st20 st21">DELIVERY</tspan></text>
							</g>
							<g>
								<polygon class="st19" points="163.6,202.2 163,204.7 213.6,204.7 231.8,202.2 								"/>
								<polygon class="st19" points="164.5,198.2 163.9,200.7 252.7,200.7 270.8,198.2 								"/>
								<polygon class="st19" points="163.6,256.8 163,259.3 213.6,259.3 231.8,256.8 								"/>
								<polygon class="st19" points="164.5,252.8 163.9,255.3 252.7,255.3 270.8,252.8 								"/>
							</g>
						</g>
						<g>
							<g>
								<path class="st22" d="M381,246l63.7,19.1c14.1,4.2,20.5,20.6,12.9,33.2L414,371.1l-24.8-11l35.7-67.8l-72.6-15.2
									c-14-2.9-22.3-17.5-17.6-31.1l0,0L381,246L381,246z"/>
								<g>
									<path class="st23" d="M392.4,365.1l1.9-2.8l14.1,6.3l-3.3,6l-15.7-4.4C390.3,368.5,391.3,366.8,392.4,365.1z"/>
									<path class="st0" d="M396.2,377.3l1.3,3.3l-1.8-1.2c-0.7-0.5-1.5-0.8-2.4-0.8h-8.2c1.2-2.9,2.6-5.7,4.1-8.5l15.7,4.4
										l-0.9,1.7h-7.2C396.4,376.3,396.1,376.8,396.2,377.3z"/>
									<path class="st8" d="M414.3,391.7H381l0.6-2.4c0.9-3.6,2.1-7.2,3.6-10.7h8.2c0.8,0,1.7,0.3,2.4,0.8l1.8,1.2l-1.3-3.3
										c-0.2-0.5,0.2-1,0.7-1h7.2l5.3,5c2.4,2.3,5.6,3.5,8.9,3.5h3.6c3.5,0,6.6,2,8.2,4.9l-6.9,1.2
										C420.2,391.4,417.3,391.7,414.3,391.7z"/>
									<path class="st0" d="M414.3,391.7c3,0,5.9-0.3,8.8-0.8l6.9-1.2c0.7,1.2,1.1,2.6,1.1,4.1l-10.5,1c-1.7,0.1-3.3,0.2-5,0.2
										h-35.5l0.9-3.3L414.3,391.7L414.3,391.7z"/>
									<polygon class="st8" points="394.2,362.3 408.3,368.6 406.8,371.4 391.4,366.6 									"/>
								</g>
							</g>
							<g>
								<path class="st23" d="M395.1,133.2l1.9-10.9c0.6-3.7,3.8-6.3,7.6-6.3h11l-1,5.2c-0.7,3.8-0.6,7.6,0.2,11.4l0.5,2.1
									c0.2,0.9-0.5,1.8-1.4,1.8h-2.2c-2.8,10.3-15.3,14.6-24,8l-13.6-10.5l7.2,5.1C386.6,142.7,394,139.6,395.1,133.2z"/>
								<path class="st3" d="M416.3,112.2l-0.7,3.8l0,0h-11c-3.7,0-6.9,2.7-7.6,6.3l-1.9,10.9c-1.1,6.4-8.5,9.5-13.8,5.7l-7.2-5.1
									l0,0l0,0v-21.7C374.1,112.2,416.3,112.2,416.3,112.2z"/>
								<g>
									<polygon class="st8" points="374.1,133.9 387.7,144.4 385.9,149.6 									"/>
									<polygon class="st23" points="364.6,148.4 374.1,133.9 385.9,149.6 382.8,158.5 									"/>
								</g>
								<path class="st8" d="M407.4,124.6c-0.2,1.3,0.2,2.4,0.9,2.5c0.7,0.1,1.4-0.8,1.6-2.1s-0.2-2.4-0.9-2.5
									C408.3,122.4,407.6,123.3,407.4,124.6z"/>
								<g>
									<path class="st8" d="M410.6,120.2c-1.1-0.6-2.4-0.6-3.5,0.2c-1.1,0.7-2-1-1-1.7c1.6-1.1,3.7-1.1,5.5-0.2
										C412.7,119.1,411.7,120.8,410.6,120.2L410.6,120.2z"/>
								</g>
								<g>
									<g>
										<path class="st0" d="M408,132.2l-2.2,0.8c-3.2,1.1-6.7,1.2-10,0.3l-5.5-1.5l1.3-2.6l4.2,1.2c3.3,0.9,6.8,0.8,10-0.3
											l2.2-0.8c1.9-0.7,3.9-1.2,6-1.5l0.8-0.1l0.7,2.9l-1.5,0.2C411.9,131.1,409.9,131.6,408,132.2z"/>
										<path class="st24" d="M390.3,131.8l5.5,1.5c3.3,0.9,6.8,0.8,10-0.3l2.2-0.8c1.9-0.7,3.9-1.2,6-1.5l1.5-0.2l0.2,0.9
											c0.4,1.6,0.3,3.4-0.3,4.9l-1.2,3.4c-2.2,6-7.7,10.1-14,10.4l0,0c-3.9,0.2-7.8-1.1-10.9-3.6l-4.6-3.7L390.3,131.8z"/>
									</g>
									<path class="st25" d="M395.7,130.3l-0.5,2.9c-0.8,4.7-5,7.6-9.3,7.3l5.7-11.4L395.7,130.3z"/>
								</g>
								<g>
									<path class="st22" d="M387.7,136.3l4.2,11.9c0.1,0.4-0.2,0.8-0.6,0.7l0,0c-3.1-0.4-5.9-2.2-7.4-4.9l-5.3-9.1L387.7,136.3z"
										/>
									<g>
										<path class="st10" d="M391.8,118.2l-2.3,13c-0.4,2.2-2.7,3.5-4.8,2.8l-22.6-8.4v-16.2c0-16.6,13.5-30.1,30.1-30.1l0,0
											c16.3,0,29.6,13,30.1,29.2h-18.9C397.6,108.5,392.8,112.6,391.8,118.2z"/>
										<g>
											<g>
												<path class="st0" d="M373.5,103.8c1.5,0,2.9-0.8,3.6-2.2c3-5.6,8.7-9.2,15.1-9.2c2.2,0,4.1-1.8,4.1-4.1
													c0-2.2-1.8-4.1-4.1-4.1c-9.4,0-17.9,5.2-22.3,13.5c-1,2-0.3,4.4,1.7,5.5C372.2,103.6,372.9,103.8,373.5,103.8z"/>
											</g>
											<g>
												<path class="st0" d="M404.6,96.4c1.3,0,2.5-0.6,3.3-1.7c1.3-1.8,0.9-4.3-0.9-5.7l-0.2-0.1c-1.8-1.3-4.4-0.9-5.7,0.9
													c-1.3,1.8-0.9,4.4,0.9,5.7l0.1,0.1C402.9,96.2,403.8,96.4,404.6,96.4z"/>
											</g>
										</g>
										<path class="st9" d="M384.7,134c2.1,0.8,4.4-0.5,4.8-2.8l2.3-13c1-5.6,5.9-9.7,11.5-9.7h18.9c0,0.3,0,0.6,0,0.9v2.8h-17.9
											c-4.4,0-8.1,3.1-8.9,7.5l-2.3,12.9c-0.8,4.6-5.7,7.2-10,5.4l-18.9-8.3c-1.3-0.6-2.2-1.9-2.2-3.3v-0.7L384.7,134z"/>
									</g>
								</g>
							</g>
							<g>
								<g>
									<path class="st7" d="M386.5,239.1l-5.5-24.2l7.9-43.5c0.9-5.2-1.5-10.4-6.1-12.9l-18.3-10.1c-2.4-1.3-5.4-1-7.4,0.8l0,0
										c-15,12.9-24.4,31.1-26.2,50.9l-3.4,38.2c-0.4,4.2,2.9,7.8,7.1,7.8l0,0H381l0,0C384.6,246,387.3,242.6,386.5,239.1z"/>
									<path class="st5" d="M359,166.5l-0.2,0.6c-1.9,7.4-0.5,15.3,3.8,21.5l18.3,26.3l3.7-20.4L359,166.5z"/>
								</g>
								<g>
									<g>
										<polygon class="st7" points="384.5,153.5 389.5,156.1 384.5,161.6 382.8,158.5 										"/>
										<polygon class="st5" points="389.5,156.1 390.7,165.4 385.5,160.5 										"/>
									</g>
									<polygon class="st26" points="361.6,147.6 366.9,142.9 385.9,153.2 383.3,164.2 									"/>
								</g>
							</g>
							<g>
								<g>
									<path class="st23" d="M468.8,224.6h14.2c2.6,0,4.8,2.1,4.8,4.8v8.8c0,2.6-2.1,4.8-4.8,4.8h-11.5v-3.5l0,0
										c-3.5,0-6.8-1.4-9.2-3.8l-1.7-1.7L468.8,224.6z"/>
									<polygon class="st23" points="468.8,224.6 460.5,233.9 425.2,225.7 430.1,212.6 									"/>
									<polygon class="st3" points="430.1,212.6 431.8,213.1 432.4,227.4 425.2,225.7 									"/>
									<path class="st7" d="M362.4,162L362.4,162c4.7-3.7,11.4-3,15.2,1.5l36.7,42.5l6.6,2.2l-6.2,16.5l-3.5-0.8
										c-5.5-1.2-10.5-4-14.4-8.1l-35.7-37.5C356.7,173.7,357.2,166.1,362.4,162z"/>
									<path class="st5" d="M414.6,225.3l0.2-0.5l6.2-16.5l0.6-1.6c0.3-0.9,1.4-1.4,2.3-1.1l6.1,2.3c0.9,0.3,1.4,1.4,1.1,2.3
										l-0.5,1.3l-5.8,15.4l-0.7,1.9c-0.3,0.9-1.4,1.4-2.3,1.1l-6.1-2.3C414.7,227.2,414.2,226.2,414.6,225.3z"/>
									<path class="st26" d="M375.3,165.3c-3.4-4-9.1-5-13.7-2.6c0.3-0.2,0.5-0.5,0.8-0.7l0,0c4.7-3.7,11.4-3,15.2,1.5l36.7,42.5
										l6.6,2.2l-1,2.6l-7.4-2.5L375.3,165.3z"/>
								</g>
								<g>
									<path class="st8" d="M466.8,239.4c-1.1-2-3.5-2.7-5.5-1.6l0,0c0.1-0.1,0.2-0.1,0.2-0.2l9.1-5c2-1.1,4.4-0.4,5.5,1.6
										c1.1,2,0.4,4.4-1.6,5.5l-9.1,5C467.2,243.6,467.8,241.3,466.8,239.4z"/>
									<path class="st11" d="M463.5,245.3c-1.4,0-2.8-0.8-3.6-2.1c-1-1.9-0.4-4.2,1.4-5.3l0,0c2-1.1,4.4-0.4,5.5,1.6
										c1,1.9,0.4,4.2-1.4,5.3l0,0C464.8,245.1,464.1,245.3,463.5,245.3z"/>
								</g>
							</g>
						</g>
					</g>
					<g>
						<path class="st1" d="M200.8,442.8c-1.9-6.1-2.8-8.6-15.3-9.7c-3.4-0.3-6.8,0.8-10.2,0.5c-3.4-0.4-7-2.7-7.1-6.2
							c-0.1-3.7,3.9-6.9,2.8-10.4c-0.9-2.6-4.1-3.4-6.8-3.2s-5.5,0.9-8,0.1c-3.1-1.1-5.1-4.4-5.4-7.7s0.7-6.6,1.8-9.7
							c1.1-3.1,2.4-6.2,2.7-9.5c0.6-7-3.4-13.7-8.7-18.4c-7.3-6.4-17.1-9.8-26.8-9.2c-9.5,0.6-21.1,4.2-26.5,12.5
							c-3.2,4.9-4.3,11.1-3.1,16.8c0.5,2.4,1.4,4.9,0.7,7.3c-1,3.5-4.8,5.2-8.1,6.5c-3.4,1.3-7.1,3.2-7.8,6.7
							c-0.7,3.2,1.7,6.4,4.5,8s6.1,2.2,9.2,3.2c3.1,1,6.3,2.7,7.7,5.6c1.2,2.5,0.8,5.5,1.9,8.1c1.7,4.4,7.1,6.5,11.7,5.9
							c4.7-0.6,8.8-3.1,12.8-5.8c2-1.3,3.9-2.6,6.2-3.4s4.8-0.7,6.8,0.6c2.5,1.6,3.8,5,6.6,5.6c2.8,0.6,5.2-1.8,7.3-3.7
							c2.1-1.9,5.5-3.5,7.6-1.5c0.9,0.8,1.2,2.1,1.8,3.2c2.2,4.4,7.9,5.8,12.8,5.3s9.5-2.6,14.4-3.1
							C191,436.7,199.6,438.9,200.8,442.8z"/>
						<path class="st1" d="M81,430c-4.2-1.4-9.1-0.1-12.2,3.1c-1.9,2.1-3,5.4-1.4,7.7c1.4,1.9,4.1,2.4,6.4,1.9
							c2.3-0.5,4.4-1.7,6.7-2.4c2.3-0.7,4.9-0.9,6.8,0.5c0.5,0.4,0.9,0.8,1.4,1c3.3,1.5-0.3-4.8-0.8-5.6C86.6,433.3,84.1,431,81,430
							z"/>
						<path class="st1" d="M48.4,395.1c-2.1-0.5-4.7,0.1-5.8,2c-1.3,2.2-0.1,5.2,2,6.7c2.6,1.8,11.7,3.8,13.6-0.2
							C59.7,400.5,51.1,395.8,48.4,395.1z"/>
						<path class="st1" d="M79.3,389.6c-0.5,0.9-1.4,1.4-2.4,1.6c-1,0.2-2,0.1-3,0c-1.8-0.2-3.6-0.4-5.1-1.3
							c-1.5-0.9-2.7-2.7-2.3-4.4C67.9,378.9,82.5,383.7,79.3,389.6z"/>
						<path class="st1" d="M164.9,354.2c1.6,0.7,3,2.2,2.9,3.9c-0.1,1.3-1,2.4-2.1,3c-1.1,0.6-2.4,0.8-3.7,0.9
							c-1.6,0.1-3.4-0.1-4.5-1.2c-0.8-0.7-1.2-1.7-1.8-2.5c-1-1.5-2.6-2.7-4.4-3.2c-1-0.3-2.6-0.6-2.7-2c0-1.4,1.8-2.3,3-2.6
							c1.1-0.2,2.1,0.2,3,0.6c1.5,0.7,3,1.3,4.6,1.7C161.1,353.4,163.1,353.4,164.9,354.2z"/>
					</g>
				</g>
			</g>
			<g>
				
					<linearGradient id="SVGID_1_" gradientUnits="userSpaceOnUse" x1="336.001" y1="407.0185" x2="484.11" y2="407.0185" gradientTransform="matrix(1 0 0 -1 0 502)">
					<stop  offset="0" style="stop-color:#7FCBD0;stop-opacity:0"/>
					<stop  offset="0.5443" style="stop-color:#7FCBD0"/>
					<stop  offset="0.9884" style="stop-color:#7FCBD0;stop-opacity:0"/>
				</linearGradient>
				<rect x="336" y="93.5" class="st27" width="148.1" height="2.9"/>
				
					<linearGradient id="SVGID_00000090287955048762626370000007216048467948923067_" gradientUnits="userSpaceOnUse" x1="353.501" y1="401.2085" x2="501.61" y2="401.2085" gradientTransform="matrix(1 0 0 -1 0 502)">
					<stop  offset="0" style="stop-color:#7FCBD0;stop-opacity:0"/>
					<stop  offset="0.5443" style="stop-color:#7FCBD0"/>
					<stop  offset="0.9884" style="stop-color:#7FCBD0;stop-opacity:0"/>
				</linearGradient>
				
					<rect x="353.5" y="99.3" style="fill:url(#SVGID_00000090287955048762626370000007216048467948923067_);" width="148.1" height="2.9"/>
				
					<linearGradient id="SVGID_00000065752791000154373130000008536742308590090371_" gradientUnits="userSpaceOnUse" x1="232.596" y1="180.2455" x2="380.705" y2="180.2455" gradientTransform="matrix(1 0 0 -1 0 502)">
					<stop  offset="0" style="stop-color:#7FCBD0;stop-opacity:0"/>
					<stop  offset="0.5443" style="stop-color:#7FCBD0"/>
					<stop  offset="0.9884" style="stop-color:#7FCBD0;stop-opacity:0"/>
				</linearGradient>
				
					<rect x="232.6" y="320.3" style="fill:url(#SVGID_00000065752791000154373130000008536742308590090371_);" width="148.1" height="2.9"/>
				
					<linearGradient id="SVGID_00000045606988618227115600000004199006497979339412_" gradientUnits="userSpaceOnUse" x1="250.097" y1="174.4355" x2="398.206" y2="174.4355" gradientTransform="matrix(1 0 0 -1 0 502)">
					<stop  offset="0" style="stop-color:#7FCBD0;stop-opacity:0"/>
					<stop  offset="0.5443" style="stop-color:#7FCBD0"/>
					<stop  offset="0.9884" style="stop-color:#7FCBD0;stop-opacity:0"/>
				</linearGradient>
				
					<rect x="250.1" y="326.1" style="fill:url(#SVGID_00000045606988618227115600000004199006497979339412_);" width="148.1" height="2.9"/>
				
					<linearGradient id="SVGID_00000091729198001359278550000004029365038121222555_" gradientUnits="userSpaceOnUse" x1="355.432" y1="337.7775" x2="503.541" y2="337.7775" gradientTransform="matrix(1 0 0 -1 0 502)">
					<stop  offset="0" style="stop-color:#7FCBD0;stop-opacity:0"/>
					<stop  offset="0.5443" style="stop-color:#7FCBD0"/>
					<stop  offset="0.9884" style="stop-color:#7FCBD0;stop-opacity:0"/>
				</linearGradient>
				
					<rect x="355.4" y="162.8" style="fill:url(#SVGID_00000091729198001359278550000004029365038121222555_);" width="148.1" height="2.9"/>
				
					<linearGradient id="SVGID_00000070809681685711483610000002415062815921393823_" gradientUnits="userSpaceOnUse" x1="363.641" y1="343.5425" x2="566.893" y2="343.5425" gradientTransform="matrix(1 0 0 -1 0 502)">
					<stop  offset="0" style="stop-color:#7FCBD0;stop-opacity:0"/>
					<stop  offset="0.5443" style="stop-color:#7FCBD0"/>
					<stop  offset="0.9884" style="stop-color:#7FCBD0;stop-opacity:0"/>
				</linearGradient>
				
					<rect x="363.6" y="157" style="fill:url(#SVGID_00000070809681685711483610000002415062815921393823_);" width="203.3" height="2.9"/>
				
					<linearGradient id="SVGID_00000173155832453879103970000004076743243329914764_" gradientUnits="userSpaceOnUse" x1="340.944" y1="349.9115" x2="544.196" y2="349.9115" gradientTransform="matrix(1 0 0 -1 0 502)">
					<stop  offset="0" style="stop-color:#7FCBD0;stop-opacity:0"/>
					<stop  offset="0.5443" style="stop-color:#7FCBD0"/>
					<stop  offset="0.9884" style="stop-color:#7FCBD0;stop-opacity:0"/>
				</linearGradient>
				
					<rect x="340.9" y="150.6" style="fill:url(#SVGID_00000173155832453879103970000004076743243329914764_);" width="203.3" height="2.9"/>
				
					<linearGradient id="SVGID_00000029007364057494225440000017315975297082245254_" gradientUnits="userSpaceOnUse" x1="251.674" y1="268.9015" x2="399.783" y2="268.9015" gradientTransform="matrix(1 0 0 -1 0 502)">
					<stop  offset="0" style="stop-color:#7FCBD0;stop-opacity:0"/>
					<stop  offset="0.5443" style="stop-color:#7FCBD0"/>
					<stop  offset="0.9884" style="stop-color:#7FCBD0;stop-opacity:0"/>
				</linearGradient>
				
					<rect x="251.7" y="231.6" style="fill:url(#SVGID_00000029007364057494225440000017315975297082245254_);" width="148.1" height="2.9"/>
				
					<linearGradient id="SVGID_00000020397917722887066430000005220682480860976063_" gradientUnits="userSpaceOnUse" x1="259.882" y1="274.6655" x2="463.134" y2="274.6655" gradientTransform="matrix(1 0 0 -1 0 502)">
					<stop  offset="0" style="stop-color:#7FCBD0;stop-opacity:0"/>
					<stop  offset="0.5443" style="stop-color:#7FCBD0"/>
					<stop  offset="0.9884" style="stop-color:#7FCBD0;stop-opacity:0"/>
				</linearGradient>
				
					<rect x="259.9" y="225.9" style="fill:url(#SVGID_00000020397917722887066430000005220682480860976063_);" width="203.3" height="2.9"/>
				
					<linearGradient id="SVGID_00000001661978409985507240000002314605076856596631_" gradientUnits="userSpaceOnUse" x1="237.186" y1="281.0355" x2="440.438" y2="281.0355" gradientTransform="matrix(1 0 0 -1 0 502)">
					<stop  offset="0" style="stop-color:#7FCBD0;stop-opacity:0"/>
					<stop  offset="0.5443" style="stop-color:#7FCBD0"/>
					<stop  offset="0.9884" style="stop-color:#7FCBD0;stop-opacity:0"/>
				</linearGradient>
				
					<rect x="237.2" y="219.5" style="fill:url(#SVGID_00000001661978409985507240000002314605076856596631_);" width="203.3" height="2.9"/>
				
					<linearGradient id="SVGID_00000183209789889777903790000005991930891797730969_" gradientUnits="userSpaceOnUse" x1="485.405" y1="181.4425" x2="633.514" y2="181.4425" gradientTransform="matrix(1 0 0 -1 0 502)">
					<stop  offset="0" style="stop-color:#7FCBD0;stop-opacity:0"/>
					<stop  offset="0.5443" style="stop-color:#7FCBD0"/>
					<stop  offset="0.9884" style="stop-color:#7FCBD0;stop-opacity:0"/>
				</linearGradient>
				
					<rect x="485.4" y="319.1" style="fill:url(#SVGID_00000183209789889777903790000005991930891797730969_);" width="148.1" height="2.9"/>
				
					<linearGradient id="SVGID_00000094600569105198543050000018057380443391366580_" gradientUnits="userSpaceOnUse" x1="450.564" y1="187.2065" x2="653.816" y2="187.2065" gradientTransform="matrix(1 0 0 -1 0 502)">
					<stop  offset="0" style="stop-color:#7FCBD0;stop-opacity:0"/>
					<stop  offset="0.5443" style="stop-color:#7FCBD0"/>
					<stop  offset="0.9884" style="stop-color:#7FCBD0;stop-opacity:0"/>
				</linearGradient>
				
					<rect x="450.6" y="313.3" style="fill:url(#SVGID_00000094600569105198543050000018057380443391366580_);" width="203.3" height="2.9"/>
				
					<linearGradient id="SVGID_00000093174979626323422210000001510589890426792071_" gradientUnits="userSpaceOnUse" x1="427.867" y1="193.5755" x2="631.119" y2="193.5755" gradientTransform="matrix(1 0 0 -1 0 502)">
					<stop  offset="0" style="stop-color:#7FCBD0;stop-opacity:0"/>
					<stop  offset="0.5443" style="stop-color:#7FCBD0"/>
					<stop  offset="0.9884" style="stop-color:#7FCBD0;stop-opacity:0"/>
				</linearGradient>
				
					<rect x="427.9" y="307" style="fill:url(#SVGID_00000093174979626323422210000001510589890426792071_);" width="203.3" height="2.9"/>
			</g>
		</g>
	</g>
</g>
</svg>
