<?xml version="1.0" encoding="utf-8"?>
<!-- Generator: Adobe Illustrator 25.4.1, SVG Export Plug-In . SVG Version: 6.00 Build 0)  -->
<svg version="1.1" id="Layer_1" xmlns="http://www.w3.org/2000/svg" xmlns:xlink="http://www.w3.org/1999/xlink" x="0px" y="0px"
	 viewBox="0 0 632 406" style="enable-background:new 0 0 632 406;" xml:space="preserve">
<style type="text/css">
	.st0{fill:#2DA9A9;}
	.st1{fill:#8B383E;}
	.st2{fill:#FFCF7B;}
	.st3{fill:#84CDCD;}
	.st4{fill:#D1A454;}
	.st5{opacity:0.25;}
	.st6{fill:#231F20;}
	.st7{fill:#FFFFFF;}
	.st8{opacity:0.1;}
	.st9{fill:#FCDCBC;}
	.st10{fill:#FBC58F;}
	.st11{fill:#FEF1E4;}
	.st12{fill:#B5E1E1;}
	.st13{fill:#CFECFF;}
	.st14{fill:#FBA43B;}
	.st15{fill:#0096D6;}
	.st16{fill:#2AD2FF;}
	.st17{fill:#99FFFF;}
	.st18{fill:#74E9FF;}
	.st19{fill:#666666;}
	.st20{fill-rule:evenodd;clip-rule:evenodd;}
	.st21{fill:#FF8B66;}
	.st22{fill:#B0D6EA;}
	.st23{fill:#EF6E4B;}
	.st24{fill:#0D527C;}
	.st25{fill:#093951;}
	.st26{fill:#DB614D;}
	.st27{fill:#0C476B;}
	.st28{fill:#1A4850;}
</style>
<path class="st0" d="M515.4,284.9c0,0,3-5.9,6.4-0.5s-4.3,9.9-4.3,9.9s-6.4-6.3-5.2-8.8C513.6,283,515.4,284.9,515.4,284.9z"/>
<path class="st0" d="M490.6,325.7c0,0-2.4-6.2,4-5.1c6.3,1.1,4.5,9.8,4.5,9.8s-9,0.6-10-2C488,325.8,490.6,325.7,490.6,325.7z"/>
<path class="st0" d="M487.2,296.9c0.2-0.7,0.1-1.4-0.1-2c-0.1-0.5-0.2-1-0.2-1.5c-0.1-0.3,0-0.7,0.2-0.9c0.2-0.2,0.4-0.3,0.6-0.3
	s0.5,0,0.7,0.1c0.4,0.2,0.9,0.3,1.3,0.3c0.2,0,0.4-0.1,0.6-0.2s0.3-0.3,0.4-0.5s0.1-0.5,0.2-0.7c0.1-0.1,0.2-0.3,0.4-0.4
	c0.1-0.1,0.3-0.2,0.5-0.2s0.4,0,0.5,0c0.2,0,0.3,0.1,0.5,0.2c0.6,0.5,1,1.1,1.2,1.7c0.7,1.4,1.2,3,1.2,4.5c-0.2,1.1-0.4,2.1-0.6,3.1
	l-0.3-0.4l-2.4,0.5c-0.3,0.1-0.6,0.1-0.9,0.1c-0.6-0.1-1.1-0.4-1.6-0.7c-0.6-0.3-1.1-0.6-1.7-0.9c-0.3-0.2-0.5-0.4-0.6-0.7
	c-0.1-0.3-0.1-0.6,0-0.9C487,297.2,487.1,297.1,487.2,296.9z"/>
<path class="st0" d="M524.5,302.1c0.1-0.3,0.1-0.7,0-1c-0.2-0.4-0.6-0.6-0.9-0.9c-0.2-0.3-0.4-0.6-0.4-0.9c-0.1-0.3-0.1-0.7,0-1
	c0.2-0.6,0.5-1.3,0.9-1.8c0.1-0.1,0.2-0.2,0.3-0.3c0.1,0,0.3,0,0.4,0.1c0.7,0.4,1.3,1,1.6,1.8c0,0.2,0.1,0.3,0.3,0.4
	c0.3,0.2,0.7,0,0.9-0.3c0.3-0.4,0.4-0.8,0.7-1.2c0.1-0.2,0.3-0.3,0.5-0.4s0.4-0.1,0.7,0c0.5,0.2,0.5,0.9,0.4,1.3
	c-0.2,0.5-0.3,1-0.3,1.5c0,0.1,0.1,0.2,0.1,0.3c0.3,0.3,0.7,0,1.1,0c0.3,0,0.7,0,0.9,0.2c0.3,0.2,0.5,0.4,0.6,0.8
	c0.1,0.3,0.1,0.6,0.1,1s-0.2,0.6-0.4,0.9c-0.4,0.5-0.8,1-1.3,1.5l-2.7,2.5l0.1,0.4c-1.1-0.2-2-0.8-2.7-1.7
	C524.7,304.3,524.4,303.2,524.5,302.1z"/>
<path class="st0" d="M466.4,310.7c-0.6-0.4-0.6-1.5-1.2-1.8c-0.3-0.1-0.6-0.1-0.9,0c-0.4,0.1-0.7,0.3-1,0.7
	c-0.3,0.3-0.4,0.7-0.4,1.1c0,0.9,0.9,1.7,0.6,2.5c-0.2,0.3-0.4,0.6-0.6,0.8c-0.3,0.3-0.5,0.6-0.6,1s-0.1,0.8,0,1.1
	c0.1,0.4,0.3,0.7,0.6,0.9c0.3,0.2,0.7,0.3,1.1,0.2c0.2-0.1,0.4-0.1,0.6-0.1c0.8,0.1,0.6,1.5,1.3,1.7c0.2,0,0.3,0,0.5,0
	c0.2-0.1,0.3-0.1,0.4-0.2c1-0.7,2-1.4,3-2.1l-0.2,0.1c0.2-0.2,0.3-0.4,0.4-0.6s0.1-0.5,0.1-0.7c0-0.9,0-1.8-0.1-2.7
	c-0.1-0.7-0.2-1.5-0.9-1.8C468.2,310.5,467.1,311.2,466.4,310.7z"/>
<path class="st0" d="M500.1,318.8c0.5-0.6,0.1-1.5,0.7-2c0.3-0.2,0.6-0.3,0.9-0.2c0.4,0,0.8,0.1,1.1,0.4c0.3,0.2,0.6,0.6,0.7,1
	c0.2,0.9-0.4,1.9,0.1,2.6c0.2,0.2,0.5,0.4,0.8,0.6s0.6,0.5,0.8,0.8c0.2,0.3,0.3,0.7,0.4,1.1c0,0.4-0.1,0.8-0.4,1
	c-0.2,0.3-0.6,0.5-1,0.5c-0.2,0-0.4,0-0.6,0c-0.7,0.3-0.2,1.6-0.8,2c-0.2,0.1-0.3,0.1-0.5,0.1s-0.3,0-0.5-0.1
	c-1.2-0.4-2.3-0.8-3.4-1.2l0.2,0.1c-0.2-0.1-0.4-0.3-0.5-0.5s-0.2-0.4-0.3-0.7c-0.3-0.8-0.5-1.7-0.6-2.6c-0.1-0.3-0.1-0.7-0.1-1
	c0.1-0.3,0.2-0.7,0.4-0.9C498.4,319.1,499.6,319.5,500.1,318.8z"/>
<path class="st0" d="M475.9,298.6c-0.3-0.6-1.2-0.7-1.6-1.3c-0.1-0.2-0.2-0.5-0.2-0.7c0-0.3,0.1-0.5,0.3-0.7
	c0.2-0.2,0.4-0.4,0.6-0.5s0.5-0.2,0.7-0.2c0.5-0.1,1.2,0,1.5-0.4c0.2-0.2,0.3-0.5,0.3-0.8c0.2-0.7,0.4-1.3,0.8-1.9
	c0.1-0.2,0.2-0.3,0.4-0.4c0.2-0.1,0.5,0,0.7,0.1c0.9,0.2,1.7,0.6,2.3,1.2c0.6,0.6,1,1.5,1.1,2.3c0.2,0.7,0.3,1.4,0.5,2
	c0.1,0.4,0.2,0.9,0.1,1.4l0.7-0.4c0,0.3-0.1,0.6-0.3,0.9c-0.2,0.2-0.5,0.4-0.8,0.5c-0.2,0-0.4,0-0.6,0c-0.5,0.1-0.9,0.3-1.3,0.6
	l-1.8,1.1c-0.5,0.4-1.1,0.6-1.6,0.7c-0.3,0.1-0.6,0-0.9-0.1s-0.5-0.3-0.6-0.6C475.5,300.5,476.3,299.4,475.9,298.6z"/>
<path class="st0" d="M502,315.7c0.2,0.1,0.4,0.2,0.6,0.4c0.3,0.3,0.6,0.5,1,0.7c0.2,0.1,0.4,0.2,0.6,0.2s0.4,0,0.6-0.1
	c0.4-0.3,0.6-0.9,1.1-0.9c0.2,0,0.3,0.1,0.4,0.2c0.3,0.4,0.4,0.8,0.4,1.3v2.1c0,0.3,0,0.6-0.1,0.8c-0.2,0.2-0.4,0.4-0.7,0.6
	c-0.8,0.5-1.4,1.4-1.7,2.4l-0.5,0.2c-0.2-0.3-0.5-0.4-0.8-0.5c-0.7-0.3-1.4-0.8-1.9-1.4s-0.8-1.4-0.9-2.2c0-0.2,0-0.4,0.1-0.6
	c0.2-0.4,0.8-0.5,0.8-0.9c0-0.2-0.1-0.4-0.2-0.5c-0.1-0.2-0.2-0.4-0.1-0.6c0-0.2,0.1-0.4,0.2-0.6s0.3-0.3,0.5-0.4
	C501.5,315.6,501.8,315.6,502,315.7z"/>
<path class="st0" d="M486.8,313c0.2-0.1,0.4-0.3,0.6-0.3c0.4-0.1,0.8-0.2,1.2-0.4c0.2-0.1,0.3-0.2,0.5-0.4c0.1-0.2,0.2-0.4,0.2-0.6
	c0-0.5-0.4-1.1-0.1-1.5c0.1-0.1,0.2-0.2,0.4-0.3c0.5,0,0.9,0.1,1.3,0.4l1.8,1.2c0.3,0.1,0.5,0.3,0.6,0.6c0.1,0.3,0.1,0.6,0.1,0.9
	c0,1,0.3,2,1,2.7l-0.1,0.5c-0.3,0-0.6,0.2-0.9,0.4c-0.7,0.4-1.4,0.7-2.2,0.7c-0.8,0-1.6-0.1-2.3-0.5c-0.2-0.1-0.3-0.2-0.4-0.4
	c-0.2-0.4,0-0.9-0.3-1.2c-0.2-0.1-0.4-0.1-0.5-0.1c-0.2,0-0.4-0.1-0.6-0.2s-0.3-0.3-0.4-0.5s-0.1-0.4,0-0.7
	C486.5,313.3,486.6,313.2,486.8,313z"/>
<path class="st0" d="M531.8,313.2c-0.1,0.2-0.3,0.4-0.5,0.5c-0.3,0.2-0.7,0.5-1,0.8c-0.1,0.1-0.3,0.3-0.3,0.5
	c-0.1,0.2-0.1,0.4,0,0.6c0.2,0.5,0.7,0.9,0.6,1.3c0,0.2-0.2,0.3-0.3,0.4c-0.2,0.1-0.4,0.1-0.7,0.1c-0.2,0-0.5,0-0.7-0.1l-2.1-0.5
	c-0.3,0-0.6-0.2-0.8-0.4c-0.2-0.2-0.3-0.5-0.4-0.8c-0.3-1-1-1.8-1.9-2.2v-0.5c0.3-0.1,0.5-0.4,0.7-0.7c0.5-0.6,1.1-1.1,1.9-1.5
	c0.7-0.3,1.5-0.4,2.3-0.3c0.2,0,0.4,0.1,0.5,0.2c0.3,0.3,0.3,0.9,0.7,1c0.2,0,0.4,0,0.5-0.1c0.2-0.1,0.4-0.1,0.7,0
	c0.2,0.1,0.4,0.2,0.5,0.4c0.1,0.2,0.2,0.4,0.2,0.6C532,312.8,531.9,313,531.8,313.2L531.8,313.2z"/>
<path class="st1" d="M491.2,349.3c-1.2-4.9-3.6-11.9-8.3-17.6c-1.5-1.8-3.3-3.4-5.1-4.8c-2.3-1.7-4.4-3.8-6.1-6.1
	c-1.3-1.9-2.4-4-3.3-6.2c-0.4-1-0.9-2.1-1.4-3.1c-1.1-1.8-2.5-3.5-4.1-5c-0.5-0.5-0.9-0.9-1.4-1.4l1.6-1.5c0.4,0.4,0.9,0.9,1.3,1.4
	c1.8,1.6,3.3,3.5,4.5,5.5c0.5,1.1,1,2.2,1.5,3.2c0.8,2,1.8,4,3.1,5.8c1.7,2.1,3.6,4,5.8,5.6c2,1.5,3.8,3.2,5.4,5.1
	c4.9,6,7.4,13.3,8.7,18.4L491.2,349.3z"/>
<path class="st1" d="M502.2,345.8c2.9-7.2,0.3-15.2-2.6-22.1l-0.5-1.1c-2.7-6.3-5.5-12.9-4.4-19.4c0.1-0.7,0.3-1.3,0.4-2
	c0.6-1.8,0.8-3.7,0.6-5.6c-0.2-1.9-0.8-3.7-1.8-5.4l-7-16.1l-2,0.9l7,16.1c0.9,1.7,1.4,3.6,1.6,5.5c0,1.4-0.2,2.7-0.6,4.1
	c-0.2,0.7-0.3,1.4-0.5,2.1c-1.3,7.2,1.7,14,4.5,20.7l0.5,1.1c2.8,6.5,5.3,14,2.6,20.4L502.2,345.8z"/>
<path class="st1" d="M493.3,345.5l1.8,1.2c1.7-2.6,3.2-5.4,4.4-8.3c0.3-0.7,0.5-1.5,0.6-2.4c0-0.7-0.1-1.3-0.3-1.9
	c-0.1-0.2-0.1-0.4-0.1-0.6c-0.3-1.6,0-3.3,0.9-4.7c0.7-1,1.6-1.9,2.6-2.7c1.4-1,2.5-2.3,3.3-3.8s1.2-3.1,1.3-4.8l2.5-18.2l-2.2-0.3
	l-2.5,18.2c0,1.4-0.4,2.8-1,4.1c-0.7,1.3-1.6,2.3-2.8,3.1c-1.1,0.9-2.1,2-3,3.2c-1.2,1.9-1.6,4.2-1.2,6.3c0.1,0.2,0.1,0.5,0.2,0.7
	c0.1,0.4,0.2,0.9,0.2,1.3c-0.1,0.5-0.2,1.1-0.4,1.6C496.3,340.4,494.9,343.1,493.3,345.5z"/>
<path class="st1" d="M505.8,345.6c2.8-5,5.8-10.1,7.2-15.9c0.1-0.4,0.2-0.8,0.3-1.3c0.5-2.4,1.1-4.9,2.8-6.3c0.5-0.4,1.1-0.7,1.6-1
	c0.2-0.1,0.4-0.2,0.6-0.3c4.3-2.4,7.5-6.4,8.9-11.2c0.3-1.2,0.6-2.3,0.8-3.5c0.2-1.1,0.4-2.2,0.7-3.3c0.5-1.7,1.4-3.9,3.4-4.9
	l-1-1.9c-2.6,1.4-3.9,4.2-4.5,6.2c-0.3,1.2-0.6,2.3-0.8,3.5c-0.2,1.1-0.4,2.2-0.7,3.3c-1.2,4.2-4,7.7-7.8,9.8
	c-0.2,0.1-0.4,0.2-0.6,0.3c-0.7,0.3-1.4,0.8-2,1.2c-2.3,1.9-3,4.9-3.6,7.5c-0.1,0.4-0.2,0.8-0.3,1.2c-1.3,5.5-4.2,10.5-7,15.3
	L505.8,345.6z"/>
<path class="st1" d="M491.5,346.3c6.7-11.9,7.8-24.8,2.8-34.7c-2.2-4.5-5.6-8.2-8.9-11.8c-0.8-0.9-1.7-1.8-2.5-2.7
	c-3.4-3.9-7.5-9.2-8.2-15.2l-2.2,0.3c0.8,6.7,5.1,12.3,8.7,16.4c0.8,0.9,1.7,1.8,2.5,2.8c3.2,3.5,6.5,7.1,8.6,11.3
	c4.6,9.2,3.6,21.4-2.7,32.6L491.5,346.3z"/>
<path class="st1" d="M512.3,350c2.3-9.3,4.8-19.8,3.5-30.1c-0.1-1.1-0.3-2.1-0.5-3.1c-0.3-1.8-0.6-3.6-0.7-5.5
	c-0.3-6.5,2.3-12.5,5-18.9c2.1-5,4.4-10.2,5.1-15.7l-2.2-0.3c-0.7,5.2-2.8,10.2-4.9,15.1c-2.7,6.3-5.5,12.8-5.2,19.8
	c0.1,1.9,0.4,3.8,0.7,5.7c0.2,1,0.4,2,0.5,3.1c1.3,9.9-1.2,20.2-3.4,29.3L512.3,350z"/>
<path class="st2" d="M475,396.9h46.4v-54.4H475V396.9z"/>
<path class="st3" d="M520.6,270.8c0,0,3-5.9,6.4-0.5s-4.3,9.9-4.3,9.9s-6.4-6.3-5.2-8.8C518.8,268.9,520.6,270.8,520.6,270.8z"/>
<path class="st3" d="M481.4,274.4c0.3-0.6,0.4-1.3,0.3-2c0-0.5,0-1,0.1-1.5c0-0.3,0.2-0.6,0.4-0.9c0.2-0.1,0.4-0.2,0.7-0.1
	c0.2,0,0.5,0.1,0.6,0.2c0.4,0.3,0.8,0.5,1.2,0.6c0.2,0,0.4,0,0.6-0.1s0.3-0.2,0.5-0.4c0.1-0.2,0.2-0.4,0.4-0.6
	c0.1-0.1,0.3-0.2,0.4-0.3c0.2-0.1,0.3-0.1,0.5-0.1s0.3,0.1,0.5,0.1c0.2,0.1,0.3,0.2,0.4,0.3c0.4,0.6,0.7,1.3,0.8,2
	c0.4,1.5,0.5,3.1,0.1,4.7c-0.4,1-0.8,2-1.3,2.9l-0.2-0.4l-2.5-0.1c-0.3,0-0.6,0-0.9-0.1c-0.5-0.3-1-0.6-1.4-1
	c-0.5-0.4-1-0.8-1.4-1.3c-0.2-0.2-0.3-0.5-0.4-0.9c0-0.3,0-0.6,0.2-0.9C481.2,274.6,481.3,274.5,481.4,274.4z"/>
<path class="st3" d="M514,305c0.4-0.1,0.7-0.4,1-0.8c0.2-0.2,0.5-0.5,0.7-0.6s0.4-0.2,0.6-0.2c0.3,0,0.5,0.3,0.6,0.6
	c0,0.3,0.2,0.6,0.3,0.8c0.1,0.1,0.2,0.2,0.3,0.2s0.3,0.1,0.4,0c0.2,0,0.3-0.1,0.4-0.1c0.5-0.1,0.8,0.4,0.8,0.9s-0.2,0.9-0.5,1.3
	c-0.5,0.9-1.2,1.7-2,2.3c-0.6,0.3-1.3,0.6-1.9,0.8l0.1-0.3c-0.4-0.4-0.8-0.8-1.1-1.1c-0.2-0.1-0.3-0.3-0.4-0.5
	c-0.1-0.4-0.2-0.7-0.2-1.1c-0.1-0.4-0.1-0.8-0.1-1.2c0-0.2,0.1-0.4,0.2-0.6c0.1-0.2,0.3-0.3,0.5-0.3C513.8,305,513.9,305,514,305z"
	/>
<path class="st3" d="M491.9,329.3c0.4-0.2,0.5-0.7,0.7-1.1c0.1-0.3,0.3-0.6,0.5-0.8c0.1-0.2,0.3-0.3,0.5-0.4c0.1,0,0.3,0,0.4,0.1
	s0.2,0.2,0.3,0.3c0.1,0.3,0.3,0.5,0.6,0.7c0.1,0.1,0.2,0.1,0.4,0.1c0.1,0,0.3,0,0.4-0.1s0.2-0.2,0.4-0.3c0.1,0,0.2,0,0.3,0
	c0.1,0,0.2,0,0.3,0.1c0.1,0.1,0.2,0.1,0.3,0.2c0.1,0.1,0.1,0.2,0.2,0.3c0.1,0.5,0.1,0.9-0.1,1.4c-0.2,1-0.6,2-1.2,2.8
	c-0.5,0.5-1,0.9-1.6,1.3v-0.3l-1.5-0.7c-0.2-0.1-0.4-0.2-0.5-0.3c-0.2-0.3-0.4-0.6-0.5-1c-0.2-0.4-0.4-0.7-0.5-1.1
	c-0.1-0.2-0.1-0.4,0-0.6s0.2-0.4,0.4-0.5C491.7,329.4,491.8,329.4,491.9,329.3z"/>
<path class="st3" d="M484.8,299.1c0.4-0.2,0.5-0.7,0.7-1.1c0.1-0.3,0.3-0.6,0.5-0.8c0.1-0.2,0.3-0.3,0.5-0.4c0.1,0,0.3,0,0.4,0.1
	s0.2,0.2,0.3,0.3c0.1,0.3,0.3,0.5,0.6,0.7c0.1,0.1,0.2,0.1,0.4,0.1c0.1,0,0.3,0,0.4-0.1s0.2-0.2,0.4-0.3c0.1,0,0.2,0,0.3,0
	c0.1,0,0.2,0,0.3,0.1c0.1,0.1,0.2,0.1,0.3,0.2c0.1,0.1,0.1,0.2,0.2,0.3c0.1,0.5,0.1,0.9-0.1,1.4c-0.2,1-0.6,2-1.2,2.8
	c-0.5,0.5-1,0.9-1.6,1.3v-0.3l-1.5-0.7c-0.2-0.1-0.4-0.2-0.5-0.3c-0.2-0.3-0.4-0.6-0.5-1c-0.2-0.4-0.4-0.7-0.5-1.1
	c-0.1-0.2-0.1-0.4,0-0.6s0.2-0.4,0.4-0.5C484.6,299.2,484.7,299.1,484.8,299.1z"/>
<path class="st3" d="M492,289.2c0.4-0.2,0.5-0.7,0.7-1.1c0.1-0.3,0.3-0.6,0.5-0.8c0.1-0.2,0.3-0.3,0.5-0.4c0.2,0,0.3,0,0.4,0.1
	s0.2,0.2,0.3,0.3c0.1,0.3,0.3,0.5,0.6,0.7c0.1,0.1,0.2,0.1,0.4,0.1c0.1,0,0.3,0,0.4-0.1s0.2-0.2,0.4-0.3c0.1,0,0.2,0,0.3,0
	c0.1,0,0.2,0,0.3,0.1c0.1,0.1,0.2,0.1,0.3,0.2c0.1,0.1,0.1,0.2,0.2,0.3c0.1,0.5,0.1,0.9-0.1,1.4c-0.2,1-0.6,2-1.2,2.8
	c-0.5,0.5-1,0.9-1.6,1.3v-0.3l-1.5-0.7c-0.2-0.1-0.4-0.2-0.5-0.3c-0.2-0.3-0.4-0.6-0.5-1c-0.2-0.4-0.4-0.7-0.5-1.1
	c-0.1-0.2-0.1-0.4,0-0.6s0.2-0.4,0.4-0.5C491.8,289.3,491.9,289.3,492,289.2z"/>
<path class="st3" d="M532.7,293.9c0.3,0,0.7-0.1,1-0.3c0.3-0.3,0.4-0.7,0.5-1.1c0.2-0.3,0.4-0.5,0.7-0.7s0.6-0.3,1-0.3
	c0.7,0,1.4,0.1,2,0.3c0.1,0,0.3,0.1,0.4,0.2c0.1,0.1,0.1,0.3,0.1,0.4c-0.1,0.8-0.5,1.6-1.1,2.1c-0.1,0.1-0.3,0.2-0.3,0.4
	c-0.1,0.3,0.2,0.7,0.6,0.8c0.4,0.1,0.9,0.1,1.3,0.3c0.4,0.1,0.9,0.5,0.8,1c-0.1,0.5-0.7,0.8-1.2,0.8s-1,0-1.5,0.2
	c-0.1,0.1-0.2,0.1-0.2,0.2c-0.2,0.3,0.2,0.7,0.4,1c0.1,0.3,0.2,0.6,0.1,0.9c-0.1,0.3-0.3,0.6-0.5,0.8c-0.3,0.2-0.6,0.3-0.9,0.4
	c-0.3,0.1-0.7,0-1,0c-0.6-0.2-1.2-0.4-1.8-0.8l-3.2-1.7l-0.3,0.2c-0.2-1.1,0.1-2.2,0.7-3.1C530.7,294.8,531.6,294.2,532.7,293.9z"/>
<path class="st3" d="M475.5,297.3c-0.3-0.1-0.6-0.2-0.9-0.1c-0.4,0.1-0.6,0.4-0.9,0.7c-0.3,0.2-0.6,0.2-0.9,0.3
	c-0.3,0-0.6,0-0.9-0.2c-0.5-0.3-1-0.6-1.5-1.1c-0.1-0.1-0.2-0.2-0.2-0.3c0-0.1,0-0.2,0.1-0.3c0.4-0.6,1.1-1,1.8-1.2
	c0.1,0,0.3-0.1,0.4-0.2c0.2-0.2,0.1-0.6-0.1-0.8c-0.3-0.3-0.7-0.5-0.9-0.8c-0.2-0.1-0.3-0.3-0.3-0.5s0-0.4,0.1-0.6
	c0.3-0.4,0.8-0.3,1.2-0.1c0.4,0.2,0.8,0.4,1.3,0.4c0.1,0,0.2,0,0.3-0.1c0.3-0.2,0.1-0.6,0.1-1c0-0.3,0.1-0.6,0.3-0.8
	c0.2-0.2,0.5-0.4,0.8-0.4s0.6,0,0.9,0.1s0.5,0.2,0.7,0.4c0.4,0.4,0.8,0.9,1.1,1.4c0.6,0.9,1.2,1.8,1.8,2.7h0.3
	c-0.3,0.9-1,1.7-1.9,2.1C477.5,297.5,476.5,297.6,475.5,297.3z"/>
<path class="st3" d="M510.4,334.3c0.3,0,0.6-0.1,0.9-0.3c0.3-0.3,0.3-0.7,0.5-1.1c0.2-0.3,0.4-0.5,0.7-0.7s0.6-0.3,0.9-0.3
	c0.6,0,1.3,0.1,1.9,0.3c0.1,0,0.2,0.1,0.3,0.2s0.1,0.2,0.1,0.4c-0.1,0.8-0.5,1.5-1.1,2c-0.1,0.1-0.2,0.2-0.3,0.4
	c-0.1,0.3,0.2,0.6,0.5,0.7c0.4,0.1,0.9,0.1,1.3,0.3c0.4,0.1,0.8,0.5,0.8,0.9c-0.1,0.5-0.6,0.7-1.1,0.7s-1,0-1.4,0.2
	c-0.1,0-0.2,0.1-0.2,0.2c-0.2,0.3,0.2,0.6,0.4,1c0.1,0.3,0.2,0.6,0.1,0.9c-0.1,0.3-0.3,0.6-0.5,0.7c-0.3,0.2-0.5,0.3-0.9,0.3
	c-0.3,0.1-0.6,0-0.9,0c-0.6-0.2-1.2-0.4-1.7-0.7l-3-1.7l-0.3,0.2c-0.2-1,0.1-2.1,0.7-2.9C508.5,335.1,509.4,334.5,510.4,334.3z"/>
<path class="st3" d="M462.1,299.7c-0.5-0.5-0.2-1.5-0.8-2c-0.3-0.2-0.6-0.2-0.9-0.2c-0.4,0-0.8,0.1-1.1,0.4c-0.3,0.2-0.6,0.6-0.7,1
	c-0.2,0.9,0.5,1.9,0,2.6c-0.2,0.3-0.5,0.5-0.8,0.6c-0.3,0.2-0.6,0.5-0.8,0.8c-0.2,0.3-0.3,0.7-0.3,1.1s0.1,0.8,0.4,1
	c0.3,0.3,0.6,0.5,1,0.5c0.2,0,0.4,0,0.6,0c0.7,0.3,0.2,1.6,0.9,2c0.2,0.1,0.3,0.1,0.5,0.1s0.3-0.1,0.5-0.1c1.1-0.4,2.3-0.9,3.4-1.3
	l-0.2,0.1c0.2-0.1,0.4-0.3,0.5-0.5s0.2-0.4,0.2-0.7c0.2-0.9,0.4-1.7,0.5-2.6c0.1-0.3,0.1-0.7,0-1s-0.2-0.7-0.5-0.9
	C463.8,299.9,462.6,300.4,462.1,299.7z"/>
<path class="st3" d="M495.3,311.6c0.3-0.7-0.2-1.5,0.2-2.1c0.2-0.2,0.5-0.4,0.8-0.4c0.4-0.1,0.8-0.1,1.2,0.1
	c0.4,0.1,0.7,0.4,0.9,0.8c0.4,0.8,0,1.9,0.7,2.5c0.3,0.2,0.6,0.3,1,0.4s0.7,0.3,1,0.6c0.3,0.3,0.5,0.6,0.6,1s0.1,0.8-0.1,1.1
	c-0.2,0.3-0.5,0.6-0.8,0.7c-0.2,0-0.4,0.1-0.6,0.2c-0.6,0.4,0.2,1.6-0.3,2.1c-0.1,0.1-0.3,0.2-0.4,0.2c-0.2,0-0.3,0-0.5,0
	c-1.2-0.1-2.4-0.2-3.6-0.4h0.2c-0.2-0.1-0.4-0.2-0.6-0.4c-0.2-0.2-0.3-0.4-0.4-0.6c-0.5-0.8-0.9-1.6-1.2-2.4c-0.2-0.3-0.3-0.6-0.3-1
	c0-0.3,0.1-0.7,0.2-1C493.7,312.3,495,312.4,495.3,311.6z"/>
<path class="st3" d="M470.4,279.9c0.3-0.6-0.1-1.4,0.1-2.1c0.1-0.2,0.3-0.4,0.5-0.6c0.2-0.1,0.5-0.2,0.7-0.2c0.3,0,0.5,0.1,0.7,0.2
	s0.4,0.3,0.6,0.5c0.4,0.4,0.7,1,1.2,1c0.3,0,0.6-0.1,0.8-0.2c0.7-0.2,1.3-0.4,2-0.5c0.2,0,0.4,0,0.5,0.1c0.2,0.1,0.3,0.4,0.3,0.6
	c0.4,1.1,0.4,2.2,0.1,3.3c-0.3,0.5-0.6,1-1.1,1.5l-1.4,1.5c-0.3,0.4-0.6,0.7-1.1,0.9l0.8,0.3c-0.3,0.2-0.6,0.3-0.9,0.2
	c-0.3,0-0.6-0.2-0.9-0.4c-0.1-0.1-0.2-0.3-0.3-0.5c-0.3-0.3-0.8-0.6-1.2-0.8L470,284c-0.6-0.2-1.1-0.5-1.6-0.9
	c-0.2-0.2-0.4-0.5-0.4-0.8c-0.1-0.3,0-0.6,0.1-0.9C468.6,280.7,470,280.7,470.4,279.9z"/>
<path class="st3" d="M475.4,316.2c-0.4-0.5-0.2-1.4-0.6-2c-0.1-0.2-0.3-0.3-0.5-0.4s-0.4-0.1-0.6,0s-0.4,0.2-0.5,0.4
	c-0.2,0.2-0.3,0.4-0.3,0.6c-0.2,0.5-0.3,1.1-0.7,1.3c-0.2,0.1-0.5,0.1-0.7,0c-0.6-0.1-1.1-0.1-1.7,0.1c-0.1,0-0.3,0.1-0.4,0.2
	c-0.1,0.2-0.1,0.4-0.1,0.6c0,1.1,0.2,2.2,0.8,3.2c0.3,0.5,0.7,0.8,1.2,1.2l1.5,1.2c0.3,0.3,0.6,0.5,1,0.6l-0.5,0.5
	c0.1,0.1,0.3,0.1,0.4,0.1s0.3,0,0.4-0.1s0.2-0.1,0.3-0.2c0.1-0.1,0.2-0.2,0.2-0.4c0.1-0.2,0.1-0.4,0.1-0.5c0.2-0.4,0.4-0.8,0.7-1
	l1.3-1.3c0.4-0.3,0.7-0.8,1-1.3c0.1-0.3,0.2-0.6,0.1-0.9c0-0.3-0.1-0.6-0.3-0.8C476.9,316.5,475.9,316.9,475.4,316.2z"/>
<path class="st3" d="M504.6,320.1c0.6-0.2,1.1-0.9,1.7-1.1c0.2-0.1,0.4-0.1,0.6,0s0.4,0.2,0.5,0.4c0.1,0.2,0.2,0.4,0.2,0.6
	s0,0.5-0.1,0.7c-0.2,0.5-0.5,1-0.3,1.4c0.1,0.2,0.3,0.3,0.5,0.4c0.5,0.3,0.9,0.7,1.3,1.1c0.1,0.1,0.2,0.2,0.2,0.4
	c-0.1,0.2-0.2,0.4-0.3,0.6c-0.7,0.9-1.6,1.5-2.6,2c-0.5,0.1-1.1,0.2-1.7,0.1l-1.9-0.1c-0.4,0-0.8-0.1-1.2-0.2l0.1,0.7
	c-0.1,0-0.3-0.1-0.4-0.2s-0.2-0.2-0.2-0.3c-0.1-0.1-0.1-0.3-0.1-0.4s0-0.3,0.1-0.4c0.1-0.2,0.2-0.3,0.2-0.5c0.1-0.4,0.2-0.8,0.1-1.3
	c-0.1-0.6-0.1-1.2-0.2-1.8c-0.1-0.5-0.1-1.1,0.1-1.6c0.1-0.3,0.2-0.5,0.5-0.7c0.2-0.2,0.5-0.3,0.8-0.4
	C503.3,319.4,503.8,320.3,504.6,320.1z"/>
<path class="st3" d="M506.4,295c0.2,0.1,0.4,0.2,0.6,0.4c0.3,0.3,0.6,0.5,1,0.7c0.2,0.1,0.4,0.2,0.6,0.2s0.4,0,0.6-0.1
	c0.4-0.3,0.6-0.9,1.1-0.9c0.2,0,0.3,0.1,0.4,0.2c0.3,0.4,0.4,0.8,0.4,1.3v2.1c0,0.3,0,0.6-0.1,0.8c-0.2,0.2-0.4,0.4-0.7,0.6
	c-0.8,0.5-1.4,1.4-1.7,2.4l-0.5,0.2c-0.2-0.3-0.5-0.4-0.8-0.5c-0.7-0.3-1.4-0.8-1.9-1.4s-0.8-1.4-0.9-2.2c0-0.2,0-0.4,0.1-0.6
	c0.2-0.4,0.8-0.5,0.8-0.9c0-0.2-0.1-0.4-0.2-0.5c-0.1-0.2-0.2-0.4-0.1-0.6c0-0.2,0.1-0.4,0.2-0.6s0.3-0.3,0.5-0.4
	C506,294.9,506.2,294.9,506.4,295L506.4,295z"/>
<path class="st3" d="M472.3,308.3c0.1,0.2,0.2,0.5,0.2,0.7c0,0.4,0,0.8,0.1,1.2c0,0.2,0.1,0.4,0.3,0.5c0.1,0.2,0.3,0.3,0.5,0.3
	c0.5,0.1,1.1-0.2,1.5,0.2c0.1,0.1,0.2,0.3,0.2,0.5c-0.1,0.5-0.3,0.9-0.7,1.1l-1.6,1.5c-0.2,0.2-0.4,0.4-0.7,0.5
	c-0.3,0-0.6,0-0.9-0.1c-1-0.3-2-0.1-2.9,0.4l-0.4-0.2c0-0.3,0-0.7-0.2-0.9c-0.3-0.8-0.4-1.6-0.2-2.4c0.1-0.8,0.5-1.5,1-2.1
	c0.1-0.2,0.3-0.3,0.5-0.3c0.4-0.1,0.9,0.2,1.2-0.1c0.1-0.2,0.2-0.3,0.2-0.5c0.1-0.2,0.2-0.4,0.4-0.5c0.2-0.1,0.4-0.2,0.6-0.2
	s0.4,0,0.6,0.1C472.1,307.9,472.2,308.1,472.3,308.3L472.3,308.3z"/>
<path class="st4" d="M474.6,349.1h47.2v-6.6h-47.2L474.6,349.1L474.6,349.1z"/>
<path class="st0" d="M40.7,285c0,0-2.7-6-6.4-0.8s3.8,10.1,3.8,10.1s6.7-5.9,5.6-8.5S40.7,285,40.7,285z"/>
<path class="st0" d="M66.3,337.3c0,0,6.4-1.5,2-6.1c-4.5-4.6-10.6,1.8-10.6,1.8s4.6,7.7,7.3,7.1C67.7,339.5,66.3,337.3,66.3,337.3z"
	/>
<path class="st0" d="M57.3,298.9c-0.2-0.7-0.1-1.4,0.1-2c0.1-0.5,0.2-1,0.2-1.5c0.1-0.3,0-0.7-0.2-0.9c-0.2-0.2-0.4-0.3-0.6-0.3
	c-0.2,0-0.5,0-0.7,0.1c-0.4,0.2-0.9,0.3-1.3,0.3c-0.2,0-0.4-0.1-0.6-0.2c-0.2-0.1-0.3-0.3-0.4-0.5c-0.1-0.2-0.1-0.5-0.2-0.7
	c-0.1-0.1-0.2-0.3-0.4-0.4c-0.1-0.1-0.3-0.2-0.5-0.2s-0.4,0-0.5,0c-0.2,0-0.3,0.1-0.5,0.2c-0.6,0.5-1,1.1-1.2,1.7
	c-0.7,1.4-1.2,3-1.2,4.5c0.2,1.1,0.4,2.1,0.6,3.1l0.3-0.4l2.4,0.5c0.3,0.1,0.6,0.1,0.9,0.1c0.6-0.1,1.1-0.4,1.6-0.7
	c0.6-0.3,1.1-0.6,1.7-0.9c0.3-0.2,0.5-0.4,0.6-0.7c0.1-0.3,0.1-0.6,0-0.9C57.5,299.1,57.4,299,57.3,298.9z"/>
<path class="st0" d="M34.8,301.2c0-0.4,0.1-0.7,0.3-1c0.3-0.3,0.7-0.4,1.1-0.5c0.3-0.2,0.5-0.4,0.7-0.7c0.2-0.3,0.3-0.6,0.3-1
	c0-0.7-0.1-1.4-0.3-2c0-0.1-0.1-0.3-0.2-0.4c-0.1-0.1-0.3-0.1-0.4-0.1c-0.8,0.1-1.6,0.5-2.1,1.2c-0.1,0.1-0.2,0.3-0.4,0.3
	c-0.3,0.1-0.7-0.2-0.8-0.6s-0.1-0.9-0.3-1.3c-0.1-0.4-0.5-0.9-1-0.8s-0.8,0.7-0.8,1.2s0,1-0.2,1.5c-0.1,0.1-0.1,0.2-0.2,0.2
	c-0.3,0.2-0.7-0.2-1-0.4c-0.3-0.1-0.6-0.2-0.9-0.1s-0.6,0.3-0.8,0.5c-0.2,0.3-0.3,0.6-0.4,0.9s0,0.7,0,1c0.2,0.6,0.4,1.2,0.8,1.8
	c0.6,1.1,1.2,2.1,1.8,3.2l-0.2,0.3c1.1,0.2,2.2-0.1,3.1-0.7C33.9,303.2,34.5,302.3,34.8,301.2z"/>
<path class="st0" d="M21,312.6c-0.6-0.4-0.6-1.5-1.2-1.8c-0.3-0.1-0.6-0.1-0.9,0c-0.4,0.1-0.7,0.3-1,0.7c-0.3,0.3-0.4,0.7-0.4,1.1
	c0,0.9,0.9,1.7,0.6,2.5c-0.2,0.3-0.4,0.6-0.6,0.8c-0.3,0.3-0.5,0.6-0.6,1s-0.1,0.8,0,1.1c0.1,0.4,0.3,0.7,0.6,0.9
	c0.3,0.2,0.7,0.3,1.1,0.2c0.2-0.1,0.4-0.1,0.6-0.1c0.8,0.1,0.6,1.5,1.3,1.7c0.2,0,0.3,0,0.5,0s0.3-0.1,0.4-0.2c1-0.7,2-1.4,3-2.1
	l-0.2,0.1c0.2-0.2,0.3-0.4,0.4-0.6s0.1-0.5,0.1-0.7c0-0.9,0-1.8-0.1-2.7c-0.1-0.7-0.2-1.5-0.9-1.8C22.7,312.4,21.7,313.1,21,312.6z"
	/>
<path class="st0" d="M44.4,320.8c-0.5-0.6-0.1-1.5-0.7-2c-0.3-0.2-0.6-0.3-0.9-0.2c-0.4,0-0.8,0.1-1.1,0.4c-0.3,0.2-0.6,0.6-0.7,1
	c-0.2,0.9,0.4,1.9-0.1,2.6c-0.2,0.2-0.5,0.4-0.8,0.6s-0.6,0.5-0.8,0.8s-0.3,0.7-0.4,1.1c0,0.4,0.1,0.8,0.4,1c0.2,0.3,0.6,0.5,1,0.5
	c0.2,0,0.4,0,0.6,0c0.7,0.3,0.2,1.6,0.8,2c0.2,0.1,0.3,0.1,0.5,0.1s0.3,0,0.5-0.1c1.2-0.4,2.3-0.8,3.4-1.2l-0.2,0.1
	c0.2-0.1,0.4-0.3,0.5-0.5s0.2-0.4,0.3-0.7c0.3-0.8,0.5-1.7,0.6-2.6c0.1-0.3,0.1-0.7,0.1-1c-0.1-0.3-0.2-0.7-0.4-0.9
	C46.1,321,44.9,321.4,44.4,320.8z"/>
<path class="st0" d="M68.6,300.6c0.3-0.6,1.2-0.7,1.6-1.3c0.1-0.2,0.2-0.5,0.2-0.7c0-0.3-0.1-0.5-0.3-0.7c-0.2-0.2-0.4-0.4-0.6-0.5
	s-0.5-0.2-0.7-0.2c-0.5-0.1-1.2,0-1.5-0.4c-0.2-0.2-0.3-0.5-0.3-0.8c-0.2-0.7-0.4-1.3-0.8-1.9c-0.1-0.2-0.2-0.3-0.4-0.4
	c-0.2-0.1-0.5,0-0.7,0.1c-0.9,0.2-1.7,0.6-2.3,1.2s-1,1.5-1.1,2.3c-0.2,0.7-0.3,1.4-0.5,2c-0.1,0.4-0.2,0.9-0.1,1.4l-0.7-0.4
	c0,0.3,0.1,0.6,0.3,0.9s0.5,0.4,0.8,0.5c0.2,0,0.4,0,0.6,0c0.5,0.1,0.9,0.3,1.3,0.6l1.8,1.1c0.5,0.4,1.1,0.6,1.6,0.7
	c0.3,0.1,0.6,0,0.9-0.1s0.5-0.3,0.6-0.6C69,302.5,68.2,301.4,68.6,300.6z"/>
<path class="st0" d="M68.2,322.3c-0.2-0.1-0.4-0.3-0.6-0.3c-0.4-0.1-0.8-0.2-1.2-0.4c-0.2-0.1-0.3-0.2-0.5-0.4
	c-0.1-0.2-0.2-0.4-0.2-0.6c0-0.5,0.4-1.1,0.1-1.5c-0.1-0.1-0.2-0.2-0.4-0.3c-0.5,0-0.9,0.1-1.3,0.4l-1.8,1.2
	c-0.3,0.1-0.5,0.3-0.6,0.6c-0.1,0.3-0.1,0.6-0.1,0.9c0,1-0.3,2-1,2.7l0.1,0.5c0.3,0,0.6,0.2,0.9,0.4c0.7,0.4,1.4,0.7,2.2,0.7
	c0.8,0,1.6-0.1,2.3-0.5c0.2-0.1,0.3-0.2,0.4-0.4c0.2-0.4,0-0.9,0.3-1.2c0.2-0.1,0.4-0.1,0.5-0.1c0.2,0,0.4-0.1,0.6-0.2
	s0.3-0.3,0.4-0.5s0.1-0.4,0-0.7C68.5,322.6,68.3,322.4,68.2,322.3z"/>
<path class="st0" d="M57.7,315c-0.2-0.1-0.4-0.3-0.6-0.3c-0.4-0.1-0.8-0.2-1.2-0.4c-0.2-0.1-0.3-0.2-0.5-0.4
	c-0.1-0.2-0.2-0.4-0.2-0.6c0-0.5,0.4-1.1,0.1-1.5c-0.1-0.1-0.2-0.2-0.4-0.3c-0.5,0-0.9,0.1-1.3,0.4l-1.8,1.2
	c-0.3,0.1-0.5,0.3-0.6,0.6c-0.1,0.3-0.1,0.6-0.1,0.9c0,1-0.3,2-1,2.7l0.1,0.5c0.3,0,0.6,0.2,0.9,0.4c0.7,0.4,1.4,0.7,2.2,0.7
	s1.6-0.1,2.3-0.5c0.2-0.1,0.3-0.2,0.4-0.4c0.2-0.4,0-0.9,0.3-1.2c0.2-0.1,0.4-0.1,0.5-0.1c0.2,0,0.4-0.1,0.6-0.2
	c0.2-0.1,0.3-0.3,0.4-0.5c0.1-0.2,0.1-0.4,0-0.7C58,315.3,57.9,315.1,57.7,315z"/>
<path class="st0" d="M24.3,309.4c0.1,0.2,0.2,0.5,0.3,0.7c0.3,0.3,0.5,0.7,0.7,1c0.1,0.2,0.1,0.4,0.1,0.6s-0.1,0.4-0.2,0.6
	c-0.3,0.4-1,0.6-1,1.1c0,0.2,0.1,0.3,0.2,0.5c0.3,0.3,0.8,0.5,1.3,0.4l2.1,0.2c0.3,0,0.6,0,0.9-0.1c0.3-0.2,0.5-0.4,0.6-0.7
	c0.6-0.8,1.5-1.4,2.5-1.5l0.2-0.5c-0.2-0.2-0.4-0.5-0.5-0.8c-0.3-0.8-0.7-1.4-1.3-2c-0.6-0.5-1.3-0.9-2.1-1c-0.2-0.1-0.4,0-0.6,0
	c-0.4,0.2-0.6,0.7-1,0.7c-0.2,0-0.3-0.1-0.5-0.3c-0.2-0.1-0.4-0.2-0.6-0.2s-0.4,0.1-0.6,0.2s-0.3,0.3-0.4,0.5S24.3,309.2,24.3,309.4
	z"/>
<path class="st1" d="M45.7,351.3c-1.2-4.9-3.6-11.9-8.3-17.6c-1.5-1.8-3.3-3.4-5.1-4.8c-2.3-1.7-4.4-3.8-6.1-6.1
	c-1.3-1.9-2.4-4-3.3-6.2c-0.4-1-0.9-2.1-1.4-3.1c-1.1-1.8-2.5-3.5-4.1-5c-0.5-0.5-0.9-0.9-1.4-1.4l1.6-1.5c0.4,0.4,0.9,0.9,1.3,1.4
	c1.8,1.6,3.3,3.5,4.5,5.5c0.5,1.1,1,2.2,1.5,3.2c0.8,2,1.8,4,3.1,5.8c1.7,2.1,3.6,4,5.8,5.6c2,1.5,3.8,3.2,5.4,5.1
	c4.9,6,7.4,13.3,8.7,18.4L45.7,351.3z"/>
<path class="st1" d="M42.3,347.7c-2.9-7.2-0.3-15.2,2.6-22.1l0.5-1.1c2.7-6.3,5.5-12.9,4.4-19.4c-0.1-0.7-0.3-1.3-0.4-2
	c-0.6-1.8-0.8-3.7-0.6-5.6s0.8-3.7,1.8-5.4l7-16.1l2,0.9l-7,16.1c-0.9,1.7-1.4,3.6-1.6,5.5c0,1.4,0.2,2.7,0.6,4.1
	c0.2,0.7,0.3,1.4,0.5,2.1c1.3,7.2-1.7,14-4.5,20.7l-0.5,1.1c-2.8,6.5-5.3,14-2.6,20.4L42.3,347.7z"/>
<path class="st1" d="M48.5,346.3l-2.1-0.8c1.2-2.9,2.6-5.7,4.4-8.3c0.4-0.7,1-1.3,1.6-1.8c0.5-0.4,1.1-0.6,1.8-0.8
	c0.2-0.1,0.4-0.1,0.6-0.2c1.5-0.6,2.7-1.8,3.4-3.4c0.4-1.2,0.7-2.4,0.8-3.6c0-1.7,0.5-3.3,1.2-4.8c0.8-1.5,1.9-2.8,3.3-3.8L77,306.4
	l1.5,1.6l-13.6,12.3c-1.2,0.8-2.1,1.9-2.8,3.1c-0.7,1.3-1,2.7-1,4.1c-0.1,1.4-0.4,2.9-0.9,4.2c-0.9,2.1-2.5,3.7-4.6,4.5
	c-0.2,0.1-0.5,0.2-0.7,0.3c-0.4,0.1-0.8,0.3-1.2,0.6c-0.4,0.4-0.8,0.8-1.1,1.3C51,340.9,49.6,343.6,48.5,346.3z"/>
<path class="st1" d="M38.8,348.3c-1.1-5.6-2.3-11.4-1.8-17.4c0-0.4,0.1-0.9,0.1-1.3c0.2-2.5,0.5-5-0.7-6.9c-0.4-0.5-0.8-1-1.3-1.5
	c-0.2-0.2-0.3-0.3-0.5-0.5c-3.3-3.6-5.1-8.5-4.9-13.4c0.1-1.2,0.2-2.4,0.4-3.6c0.2-1.1,0.3-2.2,0.4-3.4c0.1-1.7-0.2-4.1-1.7-5.7
	l1.6-1.5c2,2.1,2.4,5.2,2.3,7.3c-0.1,1.2-0.2,2.4-0.4,3.6c-0.2,1.1-0.3,2.2-0.4,3.4c-0.2,4.3,1.4,8.6,4.3,11.8
	c0.2,0.2,0.3,0.3,0.5,0.5c0.6,0.5,1.1,1.1,1.5,1.8c1.6,2.5,1.3,5.6,1.1,8.3c0,0.4-0.1,0.8-0.1,1.2c-0.5,5.6,0.7,11.3,1.8,16.8
	L38.8,348.3z"/>
<path class="st1" d="M53,348.2c-6.7-11.9-7.8-24.8-2.8-34.7c2.2-4.5,5.6-8.2,8.9-11.8c0.8-0.9,1.7-1.8,2.5-2.7
	c3.4-3.9,7.5-9.2,8.2-15.2L72,284c-0.8,6.7-5.1,12.3-8.7,16.4c-0.8,0.9-1.7,1.8-2.5,2.8c-3.2,3.5-6.5,7.1-8.6,11.3
	c-4.6,9.2-3.6,21.4,2.7,32.6L53,348.2z"/>
<path class="st1" d="M40.6,350.2c-1.8-9.4-3.8-20-1.9-30.2c0.2-1,0.4-2.1,0.7-3.1c0.4-1.8,0.8-3.6,1-5.4c0.6-6.5-1.6-12.6-4-19.1
	c-1.9-5.1-3.8-10.4-4.3-16l2.2-0.2c0.4,5.2,2.3,10.4,4.1,15.4c2.4,6.4,4.8,13.1,4.2,20.1c-0.2,1.9-0.6,3.8-1,5.7c-0.2,1-0.5,2-0.6,3
	c-1.8,9.8,0.2,20.2,1.9,29.4L40.6,350.2z"/>
<path class="st2" d="M69.5,344.4H23.1v54.4h46.4V344.4z"/>
<path class="st3" d="M36.2,270.7c0,0-2.7-6-6.4-0.8s3.8,10.1,3.8,10.1s6.7-5.9,5.6-8.5C38.1,268.9,36.2,270.7,36.2,270.7z"/>
<path class="st3" d="M63,276.3c-0.3-0.6-0.4-1.3-0.3-2c0-0.5,0-1-0.1-1.5c0-0.3-0.2-0.6-0.4-0.9c-0.2-0.1-0.4-0.2-0.7-0.1
	c-0.2,0-0.5,0.1-0.6,0.2c-0.4,0.3-0.8,0.5-1.2,0.6c-0.2,0-0.4,0-0.6-0.1c-0.2-0.1-0.3-0.2-0.5-0.4c-0.1-0.2-0.2-0.4-0.4-0.6
	c-0.1-0.1-0.3-0.2-0.4-0.3c-0.2-0.1-0.3-0.1-0.5-0.1s-0.3,0.1-0.5,0.1c-0.2,0.1-0.3,0.2-0.4,0.3c-0.4,0.6-0.7,1.3-0.8,2
	c-0.4,1.5-0.5,3.1-0.1,4.7c0.4,1,0.8,2,1.3,2.9l0.2-0.4l2.5-0.1c0.3,0,0.6,0,0.9-0.1c0.5-0.3,1-0.6,1.4-1c0.5-0.4,1-0.8,1.4-1.3
	c0.2-0.2,0.3-0.5,0.4-0.9c0-0.3,0-0.6-0.2-0.9C63.3,276.6,63.2,276.5,63,276.3z"/>
<path class="st3" d="M41.1,305.2c-0.4-0.1-0.7-0.5-1-0.8c-0.2-0.2-0.4-0.5-0.7-0.7c-0.1-0.2-0.3-0.2-0.6-0.2s-0.5,0.3-0.6,0.6
	c-0.1,0.3-0.2,0.6-0.4,0.8c-0.1,0.1-0.2,0.2-0.3,0.2s-0.3,0-0.4,0c-0.1,0-0.3-0.1-0.4-0.1c-0.5-0.1-0.9,0.4-0.9,0.9s0.2,0.9,0.5,1.3
	c0.4,0.9,1.1,1.7,1.9,2.4c0.6,0.3,1.2,0.6,1.9,0.9l-0.1-0.3l1.2-1.1c0.2-0.1,0.3-0.3,0.4-0.5c0.1-0.3,0.2-0.7,0.2-1.1
	c0.1-0.4,0.1-0.8,0.2-1.2c0-0.2-0.1-0.4-0.2-0.6c-0.1-0.2-0.3-0.3-0.5-0.4C41.3,305.2,41.2,305.2,41.1,305.2z"/>
<path class="st3" d="M52.6,331.3c-0.4-0.2-0.5-0.7-0.7-1.1c-0.1-0.3-0.3-0.6-0.5-0.8c-0.1-0.2-0.3-0.3-0.5-0.4c-0.2,0-0.3,0-0.4,0.1
	c-0.1,0.1-0.2,0.2-0.3,0.3c-0.1,0.3-0.3,0.5-0.6,0.7c-0.1,0.1-0.2,0.1-0.4,0.1c-0.1,0-0.3,0-0.4-0.1c-0.1-0.1-0.2-0.2-0.4-0.3
	c-0.1,0-0.2,0-0.3,0s-0.2,0-0.3,0.1s-0.2,0.1-0.3,0.2s-0.1,0.2-0.2,0.3c-0.1,0.5-0.1,0.9,0.1,1.4c0.2,1,0.6,2,1.2,2.8
	c0.5,0.5,1,0.9,1.6,1.3v-0.3l1.5-0.7c0.2-0.1,0.4-0.2,0.5-0.3c0.2-0.3,0.4-0.6,0.5-1c0.2-0.4,0.4-0.7,0.5-1.1c0.1-0.2,0.1-0.4,0-0.6
	s-0.2-0.4-0.4-0.5C52.8,331.3,52.7,331.3,52.6,331.3z"/>
<path class="st3" d="M59.7,301c-0.4-0.2-0.5-0.7-0.7-1.1c-0.1-0.3-0.3-0.6-0.5-0.8c-0.1-0.2-0.3-0.3-0.5-0.4c-0.2,0-0.3,0-0.4,0.1
	c-0.1,0.1-0.2,0.2-0.3,0.3c-0.1,0.3-0.3,0.5-0.6,0.7c-0.1,0.1-0.2,0.1-0.4,0.1c-0.1,0-0.3,0-0.4-0.1c-0.1-0.1-0.2-0.2-0.4-0.3
	c-0.1,0-0.2,0-0.3,0s-0.2,0-0.3,0.1s-0.2,0.1-0.3,0.2s-0.1,0.2-0.2,0.3c-0.1,0.5-0.1,0.9,0.1,1.4c0.2,1,0.6,2,1.2,2.8
	c0.5,0.5,1,0.9,1.6,1.3v-0.3l1.5-0.7c0.2-0.1,0.4-0.2,0.5-0.3c0.2-0.3,0.4-0.6,0.5-1c0.2-0.4,0.4-0.7,0.5-1.1c0.1-0.2,0.1-0.4,0-0.6
	s-0.2-0.4-0.4-0.5C59.9,301.1,59.8,301.1,59.7,301z"/>
<path class="st3" d="M52.5,291.2c-0.4-0.2-0.5-0.7-0.7-1.1c-0.1-0.3-0.3-0.6-0.5-0.8c-0.1-0.2-0.3-0.3-0.5-0.4c-0.2,0-0.3,0-0.4,0.1
	c-0.1,0.1-0.2,0.2-0.3,0.3c-0.1,0.3-0.3,0.5-0.6,0.7c-0.1,0.1-0.2,0.1-0.4,0.1c-0.1,0-0.3,0-0.4-0.1c-0.1-0.1-0.2-0.2-0.4-0.3
	c-0.1,0-0.2,0-0.3,0s-0.2,0-0.3,0.1s-0.2,0.1-0.3,0.2s-0.1,0.2-0.2,0.3c-0.1,0.5-0.1,0.9,0.1,1.4c0.2,1,0.6,2,1.2,2.8
	c0.5,0.5,1,0.9,1.6,1.3v-0.3l1.5-0.7c0.2-0.1,0.4-0.2,0.5-0.3c0.2-0.3,0.4-0.6,0.5-1c0.2-0.4,0.4-0.7,0.5-1.1c0.1-0.2,0.1-0.4,0-0.6
	s-0.2-0.4-0.4-0.5C52.7,291.3,52.6,291.2,52.5,291.2z"/>
<path class="st3" d="M29.5,290.8c-0.3-0.1-0.6-0.3-0.8-0.6c-0.2-0.4-0.1-0.8-0.2-1.2c-0.1-0.3-0.2-0.6-0.4-0.9
	c-0.2-0.3-0.5-0.5-0.8-0.6c-0.6-0.2-1.3-0.4-2-0.4c-0.1,0-0.3,0-0.4,0.1s-0.2,0.2-0.2,0.4c-0.2,0.8,0,1.7,0.4,2.4
	c0.1,0.1,0.2,0.3,0.2,0.5c0,0.4-0.4,0.5-0.8,0.5c-0.5,0-0.9-0.2-1.4-0.2c-0.2,0-0.5,0-0.6,0.2c-0.2,0.1-0.3,0.3-0.4,0.5
	c-0.1,0.5,0.4,0.9,0.8,1.1c0.5,0.1,1,0.4,1.3,0.7c0.1,0.1,0.1,0.2,0.1,0.3c0.1,0.4-0.4,0.6-0.7,0.8c-0.2,0.2-0.4,0.5-0.4,0.9
	c0,0.3,0.1,0.6,0.3,0.9c0.2,0.3,0.5,0.5,0.7,0.6c0.3,0.2,0.6,0.2,0.9,0.3c0.7,0,1.3,0,1.9-0.2l3.6-0.7l0.2,0.3
	c0.5-1,0.6-2.1,0.3-3.2S30.5,291.4,29.5,290.8z"/>
<path class="st3" d="M69,299.3c0.3-0.1,0.6-0.2,0.9-0.1c0.4,0.1,0.6,0.4,0.9,0.6s0.6,0.2,0.9,0.3c0.3,0,0.6,0,0.9-0.2
	c0.5-0.3,1-0.6,1.5-1.1c0.1-0.1,0.2-0.2,0.2-0.3c0-0.1,0-0.2-0.1-0.3c-0.4-0.6-1.1-1-1.8-1.2c-0.1,0-0.3-0.1-0.4-0.2
	c-0.2-0.2-0.1-0.6,0.1-0.8c0.3-0.3,0.7-0.5,0.9-0.8c0.2-0.1,0.3-0.3,0.3-0.5s0-0.4-0.1-0.6c-0.3-0.4-0.8-0.3-1.2-0.1
	c-0.4,0.2-0.8,0.4-1.3,0.4c-0.1,0-0.2,0-0.3-0.1c-0.3-0.2-0.1-0.6-0.1-1c0-0.3-0.1-0.6-0.3-0.8c-0.2-0.2-0.5-0.4-0.8-0.4
	s-0.6,0-0.9,0.1s-0.5,0.2-0.7,0.4c-0.4,0.4-0.8,0.9-1.1,1.4l-1.8,2.7h-0.3c0.3,0.9,1,1.7,1.9,2.1C67,299.4,68,299.5,69,299.3z"/>
<path class="st3" d="M38,336.2c-0.3-0.1-0.6-0.3-0.8-0.6c-0.2-0.3-0.1-0.8-0.2-1.2c-0.1-0.3-0.2-0.6-0.4-0.8
	c-0.2-0.2-0.5-0.4-0.8-0.5c-0.6-0.2-1.2-0.3-1.9-0.4c-0.1,0-0.3,0-0.4,0.1c-0.1,0.1-0.2,0.2-0.2,0.3c-0.1,0.8,0,1.6,0.4,2.2
	c0.1,0.1,0.2,0.3,0.2,0.4c0,0.3-0.4,0.5-0.7,0.5c-0.4,0-0.9-0.1-1.3-0.1c-0.2,0-0.4,0-0.6,0.1s-0.3,0.3-0.4,0.5
	c-0.1,0.5,0.4,0.9,0.8,1.1c0.5,0.1,0.9,0.3,1.3,0.6c0.1,0.1,0.1,0.2,0.1,0.3c0.1,0.4-0.4,0.6-0.6,0.8c-0.2,0.2-0.3,0.5-0.4,0.8
	c0,0.3,0.1,0.6,0.2,0.9c0.2,0.2,0.4,0.4,0.7,0.6c0.3,0.1,0.6,0.2,0.9,0.3c0.6,0,1.2,0,1.8-0.2l3.4-0.6l0.2,0.3c0.5-0.9,0.6-2,0.3-3
	C39.5,337.6,38.9,336.7,38,336.2z"/>
<path class="st3" d="M16.6,301.7c-0.5-0.5-0.2-1.5-0.8-2c-0.3-0.2-0.6-0.2-0.9-0.2c-0.4,0-0.8,0.1-1.1,0.4c-0.3,0.2-0.6,0.6-0.7,1
	c-0.2,0.9,0.5,1.9,0,2.6c-0.2,0.3-0.5,0.5-0.8,0.6c-0.3,0.2-0.6,0.5-0.8,0.8s-0.3,0.7-0.3,1.1s0.1,0.8,0.4,1c0.3,0.3,0.6,0.5,1,0.5
	c0.2,0,0.4,0,0.6,0c0.7,0.3,0.2,1.6,0.9,2c0.2,0.1,0.3,0.1,0.5,0.1s0.3-0.1,0.5-0.1c1.1-0.4,2.3-0.9,3.4-1.3l-0.2,0.1
	c0.2-0.1,0.4-0.3,0.5-0.5s0.2-0.4,0.2-0.7c0.2-0.9,0.4-1.7,0.5-2.6c0.1-0.3,0.1-0.7,0-1s-0.2-0.7-0.5-0.9
	C18.3,301.8,17.2,302.3,16.6,301.7z"/>
<path class="st3" d="M49.2,313.6c-0.3-0.7,0.2-1.5-0.2-2.1c-0.2-0.2-0.5-0.4-0.8-0.4c-0.4-0.1-0.8-0.1-1.2,0.1
	c-0.4,0.1-0.7,0.4-0.9,0.8c-0.4,0.8,0,1.9-0.7,2.5c-0.3,0.2-0.6,0.3-1,0.4s-0.7,0.3-1,0.6c-0.3,0.3-0.5,0.6-0.6,1s-0.1,0.8,0.1,1.1
	c0.2,0.3,0.5,0.6,0.8,0.7c0.2,0,0.4,0.1,0.6,0.2c0.6,0.4-0.2,1.6,0.3,2.1c0.1,0.1,0.3,0.2,0.4,0.2c0.2,0,0.3,0,0.5,0
	c1.2-0.1,2.4-0.2,3.6-0.4h-0.2c0.2-0.1,0.4-0.2,0.6-0.4c0.2-0.2,0.3-0.4,0.4-0.6c0.5-0.8,0.9-1.5,1.2-2.4c0.2-0.3,0.3-0.6,0.3-1
	c0-0.3-0.1-0.7-0.2-1C50.8,314.2,49.5,314.4,49.2,313.6z"/>
<path class="st3" d="M74.1,281.9c-0.3-0.6,0.1-1.4-0.1-2.1c-0.1-0.2-0.3-0.4-0.5-0.6S73,279,72.8,279c-0.3,0-0.5,0.1-0.7,0.2
	s-0.4,0.3-0.6,0.5c-0.4,0.4-0.7,1-1.2,1c-0.3,0-0.6-0.1-0.8-0.2c-0.7-0.2-1.3-0.4-2-0.5c-0.2,0-0.4,0-0.5,0.1
	c-0.2,0.1-0.3,0.4-0.3,0.6c-0.4,0.8-0.5,1.7-0.3,2.5c0.2,0.9,0.6,1.6,1.3,2.2c0.5,0.5,0.9,1,1.4,1.5c0.3,0.4,0.6,0.7,1.1,0.9
	l-0.8,0.3c0.3,0.2,0.6,0.3,0.9,0.2c0.3,0,0.6-0.2,0.9-0.4c0.1-0.1,0.2-0.3,0.3-0.5c0.3-0.3,0.8-0.6,1.2-0.8l1.9-0.8
	c0.6-0.2,1.1-0.5,1.6-0.9c0.2-0.2,0.4-0.5,0.4-0.8s0-0.6-0.1-0.9C75.9,282.6,74.5,282.7,74.1,281.9z"/>
<path class="st3" d="M29.9,318.1c-0.4-0.5-0.2-1.4-0.6-2c-0.1-0.2-0.3-0.3-0.5-0.4s-0.4-0.1-0.6,0s-0.4,0.2-0.5,0.4
	c-0.2,0.2-0.3,0.4-0.3,0.6c-0.2,0.5-0.3,1.1-0.7,1.3c-0.2,0.1-0.5,0.1-0.7,0c-0.6-0.1-1.1-0.1-1.7,0.1c-0.1,0-0.3,0.1-0.4,0.2
	c-0.1,0.2-0.1,0.4-0.1,0.6c0,1.1,0.2,2.2,0.8,3.2c0.3,0.5,0.7,0.8,1.2,1.2l1.5,1.2c0.3,0.3,0.6,0.5,1,0.6l-0.5,0.5
	c0.1,0.1,0.3,0.1,0.4,0.1s0.3,0,0.4-0.1s0.2-0.1,0.3-0.2c0.1-0.1,0.2-0.2,0.2-0.4c0.1-0.2,0.1-0.4,0.1-0.5c0.2-0.4,0.4-0.8,0.7-1
	l1.3-1.3c0.4-0.3,0.7-0.8,1-1.3c0.1-0.3,0.2-0.6,0.1-0.9c0-0.3-0.1-0.6-0.3-0.8C31.5,318.5,30.4,318.8,29.9,318.1z"/>
<path class="st3" d="M63,322.6c-0.2-0.6,0.1-1.4,0-2.1c-0.1-0.2-0.2-0.4-0.4-0.5s-0.4-0.2-0.6-0.2c-0.2,0-0.4,0.1-0.6,0.2
	c-0.2,0.1-0.4,0.3-0.5,0.5c-0.3,0.4-0.6,1-1,1c-0.2,0-0.5,0-0.7-0.2c-0.5-0.2-1.1-0.4-1.6-0.4c-0.1,0-0.3,0-0.4,0.1
	c-0.1,0.2-0.2,0.4-0.3,0.6c-0.3,1.1-0.4,2.2-0.1,3.3c0.2,0.5,0.5,1,0.8,1.4c0.4,0.5,0.7,1,1.1,1.5c0.2,0.3,0.5,0.6,0.8,0.9l-0.6,0.3
	c0.1,0.1,0.2,0.2,0.4,0.2c0.1,0,0.3,0,0.4,0c0.1,0,0.3-0.1,0.4-0.2c0.1-0.1,0.2-0.2,0.3-0.3c0.1-0.1,0.2-0.3,0.3-0.5
	c0.3-0.3,0.6-0.6,1-0.8l1.6-0.9c0.5-0.2,0.9-0.6,1.3-1c0.2-0.2,0.3-0.5,0.4-0.8c0-0.3,0-0.6-0.1-0.9C64.4,323.3,63.3,323.4,63,322.6
	z"/>
<path class="st3" d="M82.8,306.9c-0.2-0.1-0.4-0.3-0.6-0.3c-0.4-0.1-0.8-0.2-1.2-0.4c-0.2-0.1-0.3-0.2-0.5-0.4
	c-0.1-0.2-0.2-0.4-0.2-0.6c0-0.5,0.4-1.1,0.1-1.5c-0.1-0.1-0.2-0.2-0.4-0.3c-0.5,0-0.9,0.1-1.3,0.4l-1.8,1.2
	c-0.3,0.1-0.5,0.3-0.6,0.6c-0.1,0.3-0.1,0.6-0.1,0.9c0,1-0.3,2-1,2.7l0.1,0.5c0.3,0,0.6,0.2,0.9,0.4c0.7,0.4,1.4,0.7,2.2,0.7
	c0.8,0,1.6-0.1,2.3-0.5c0.2-0.1,0.3-0.2,0.4-0.4c0.2-0.4,0-0.9,0.3-1.2c0.2-0.1,0.4-0.1,0.5-0.1c0.2,0,0.4-0.1,0.6-0.2
	s0.3-0.3,0.4-0.5s0.1-0.4,0-0.7C83,307.3,82.9,307.1,82.8,306.9z"/>
<path class="st3" d="M68.5,309.6c-0.2,0-0.5,0.1-0.7,0.3c-0.3,0.2-0.7,0.4-1.1,0.6c-0.2,0.1-0.4,0.1-0.6,0.1s-0.4-0.1-0.6-0.2
	c-0.4-0.3-0.5-1-1-1.1c-0.2,0-0.3,0-0.5,0.1c-0.3,0.3-0.5,0.8-0.5,1.2c-0.1,0.7-0.2,1.4-0.3,2.1c-0.1,0.3-0.1,0.6,0,0.9
	c0.2,0.3,0.4,0.5,0.6,0.7c0.8,0.7,1.2,1.6,1.3,2.6l0.5,0.2c0.2-0.2,0.5-0.4,0.9-0.4c0.8-0.2,1.5-0.6,2.1-1.1c0.6-0.6,1-1.3,1.2-2
	c0.1-0.2,0.1-0.4,0-0.6c-0.1-0.4-0.7-0.6-0.6-1c0.1-0.2,0.2-0.3,0.3-0.5c0.1-0.2,0.2-0.4,0.2-0.6s0-0.4-0.1-0.6s-0.3-0.3-0.5-0.4
	C68.9,309.6,68.7,309.5,68.5,309.6L68.5,309.6z"/>
<path class="st4" d="M69.9,344.4H22.7v6.6h47.2V344.4z"/>
<path d="M293.9,51.3H107.3v344.8h186.6L293.9,51.3L293.9,51.3z"/>
<g class="st5">
	<path class="st6" d="M293.9,51.3v83.5h-62.4l-13.1,127.4l-97.8-127.4h-13.3V51.3H293.9z"/>
</g>
<path class="st7" d="M284.8,58.5H122.2v337.7h162.5L284.8,58.5L284.8,58.5z"/>
<g class="st8">
	<path class="st6" d="M284.8,58.5v304L173.7,251.3L160.1,58.5H284.8z"/>
</g>
<path class="st9" d="M285.1,269.9h-0.3v103.5h-53.4l4.8-96.5l0.3-6.9l0.2-3.1l1.2-23.9l0.1-3.1l1.2-23.9l0.1-3.1l1.1-22h40.7
	l0.1,2.3l0.5,11.1l0.4,8.7l0.1,1.5l0.1,1.6l0.7,14.4l0.5,9.6v0.6l0.1,2.5l0.6,12l0.5,9.4l0.1,2.5v0.5L285.1,269.9z"/>
<path class="st10" d="M285.1,269.9h-0.3v103.5h-24V192.9h24v71.3l0.1,2.5v0.5L285.1,269.9z"/>
<path class="st9" d="M284.8,203.9h-5.5v10.2h5.5V203.9z"/>
<path class="st9" d="M263.7,214.1h14.2v-12.4h-14.2V214.1z"/>
<path class="st9" d="M284.8,284.7H275v10.2h9.8V284.7z"/>
<path class="st9" d="M259.4,294.9h14.2v-12.4h-14.2V294.9z"/>
<path class="st9" d="M281,224.3h-18.3v16H281V224.3z"/>
<path class="st9" d="M284.8,230.1h-2.7v10.2h2.7V230.1z"/>
<path class="st9" d="M270.8,257.1h-11.6v10.2h11.6V257.1z"/>
<path class="st9" d="M284.9,267.2h-13.1v-12.4h13v9.4l0.1,2.5V267.2z"/>
<path class="st9" d="M284.8,332.7h-1.1v16h1.1V332.7z"/>
<path class="st9" d="M277.5,305.8h-18.3v16h18.3V305.8z"/>
<path class="st9" d="M284.8,311.6h-6.1v10.2h6.1V311.6z"/>
<path class="st9" d="M267.3,338.5h-11.6v10.2h11.6V338.5z"/>
<path class="st9" d="M282.5,336.3h-14.2v12.4h14.2V336.3z"/>
<path class="st11" d="M284.8,212.6h-48.7v3.1h48.7V212.6z"/>
<path class="st11" d="M284.8,239.7h-48.6v3.1h48.6V239.7z"/>
<path class="st11" d="M285.1,269.9h-48.8v-3.1H285v0.5L285.1,269.9z"/>
<path class="st11" d="M284.8,293.8h-48.5v3.1h48.5V293.8z"/>
<path class="st11" d="M284.8,320.8h-48.5v3.1h48.5V320.8z"/>
<path class="st11" d="M284.8,347.9h-48.4v3.1h48.4V347.9z"/>
<path class="st9" d="M284.8,373.3H122.2v22.8h162.5L284.8,373.3L284.8,373.3z"/>
<g class="st8">
	<path class="st6" d="M285.1,269.9h-0.3v55.6l-1.5-1.5l-18.2-18.2l-4.4-4.4l-4.5-4.5l-3.1-3.1l-17-17l0.3-6.9h-0.3v-3.1h0.5
		l1.2-23.9h-1.7v-3.1h1.8l1.2-23.9H236v-3.1h3.2l1.1-22H281l0.1,2.3h3.5v71.3l0.1,2.5v0.5L285.1,269.9z"/>
</g>
<path d="M192.7,58.5h-77.1v337.7h77.1V58.5z"/>
<path d="M197.7,58.5h-77.1v337.7h77.1V58.5z"/>
<path class="st3" d="M190.9,95.3h-63.5v262h63.5V95.3z"/>
<path class="st12" d="M188.3,95.3h-61v262h61V95.3z"/>
<g class="st5">
	<path class="st6" d="M197.7,58.5v176.8l-5-6.5l-72.1-93.9h-5V58.5H197.7z"/>
</g>
<path class="st13" d="M195.7,188.5v5.4h5.9v49.7h-5.9v5.4h9.3v-60.5L195.7,188.5L195.7,188.5z"/>
<path class="st7" d="M193.7,188.5v5.4h5.9v49.7h-5.9v5.4h9.3v-60.5L193.7,188.5L193.7,188.5z"/>
<g class="st5">
	<path class="st6" d="M293.9,58.4V97c-3.2,1-6.6,1.2-9.9,0.6s-6.4-1.9-9.1-4c-2.7-2-4.9-4.6-6.4-7.6s-2.3-6.3-2.3-9.7
		c0,2.8-0.6,5.6-1.6,8.3c-1.1,2.6-2.7,5-4.7,7s-4.4,3.6-7,4.7s-5.4,1.6-8.3,1.6c-2.8,0-5.6-0.6-8.3-1.6s-5-2.7-7-4.7s-3.6-4.4-4.7-7
		c-1.1-2.6-1.6-5.4-1.6-8.3c0,5.7-2.3,11.2-6.3,15.3c-4.1,4.1-9.5,6.3-15.3,6.3c-5.7,0-11.2-2.3-15.3-6.3c-4.1-4.1-6.3-9.6-6.3-15.3
		c0,5.7-2.3,11.2-6.3,15.3c-4,4.1-9.5,6.3-15.3,6.3c-5.7,0-11.2-2.3-15.3-6.3c-4-4.1-6.3-9.5-6.3-15.3c0,5.7-2.3,11.2-6.3,15.3
		c-4,4.1-9.5,6.3-15.3,6.3c-2.6,0-5.2-0.5-7.6-1.4V58.4H293.9z"/>
</g>
<path d="M521.5,51.3H343.2V282h178.3V51.3z"/>
<path class="st7" d="M514.1,58.5H350.6V274h163.5V58.5z"/>
<path class="st7" d="M444.7,273.9h-48.9l0.2-4.1l0.2-3.1l1.2-23.9l0.1-3.1l1.2-23.9l0.1-3.1l1.1-22h40.7l0.1,2.3l0.5,11.1l0.4,8.7
	l0.1,1.5l0.1,1.6l0.7,14.4l0.5,9.6v0.6l0.1,2.5l0.6,12l0.6,11.9v0.5l0.1,2.6L444.7,273.9z"/>
<path class="st10" d="M510.3,192.9h-90V274h90V192.9z"/>
<path class="st7" d="M476.6,214.1h18.3v-16h-18.3V214.1z"/>
<path class="st7" d="M446.7,267.2H465v-16h-18.3V267.2z"/>
<path class="st7" d="M463.8,214.1h11.6v-10.2h-11.6V214.1z"/>
<path class="st7" d="M438.8,214.1h11.6v-10.2h-11.6V214.1z"/>
<path class="st7" d="M423.2,214.1h14.2v-12.4h-14.2V214.1z"/>
<path class="st7" d="M451.3,214.1h11.6v-13.8h-11.6V214.1z"/>
<path class="st7" d="M440.4,224.3h-18.3v16h18.3V224.3z"/>
<path class="st7" d="M453.2,230.1h-11.6v10.2h11.6V230.1z"/>
<path class="st7" d="M478.2,230.1h-11.6v10.2h11.6V230.1z"/>
<path class="st7" d="M478.2,257.1h-11.6v10.2h11.6V257.1z"/>
<path class="st7" d="M430.3,257.1h-11.6v10.2h11.6V257.1z"/>
<path class="st7" d="M493.8,227.9h-14.2v12.4h14.2V227.9z"/>
<path class="st7" d="M445.5,254.8h-14.2v12.4h14.2V254.8z"/>
<path class="st7" d="M465.7,226.5h-11.6v13.8h11.6V226.5z"/>
<path class="st7" d="M491.5,253.4h-11.6v13.8h11.6V253.4z"/>
<path class="st14" d="M395.6,215.8h108v-3.1h-108V215.8z"/>
<path class="st14" d="M395.6,242.8h108v-3.1h-108V242.8z"/>
<path class="st14" d="M395.7,269.9h108v-3.1h-108V269.9z"/>
<path class="st15" d="M514.1,190.6V274h-28.2l0.2-4.1l0.1-2.6v-0.5l0.6-13.3l0.5-10.6l0.1-2.5v-0.6L488,228l0.6-12.1l0.1-1.6
	l0.1-1.5l0.7-14.5l0.3-5.2l0.1-2.3h24.2V190.6z"/>
<path class="st10" d="M370.3,192.9h-19.7V274h19.7V192.9z"/>
<path class="st7" d="M354.9,198.1h-4.3v16h4.3V198.1z"/>
<path class="st7" d="M353.8,227.9h-3.2v12.4h3.2V227.9z"/>
<path class="st7" d="M351.5,253.4h-1v13.8h1V253.4z"/>
<path class="st14" d="M363.6,212.6h-13v3.1h13V212.6z"/>
<path class="st14" d="M363.6,239.7h-13v3.1h13V239.7z"/>
<path class="st14" d="M363.7,266.7h-13.1v3.1h13.1V266.7z"/>
<path class="st15" d="M394.8,273.9h-44.2v-83.4h40.1L394.8,273.9z"/>
<g class="st5">
	<path class="st16" d="M468.2,58.5L350.6,176.2V58.5H468.2z"/>
</g>
<g class="st5">
	<path class="st17" d="M508.3,58.5L350.6,216.3v-24.7l133-133.1H508.3z"/>
</g>
<g class="st5">
	<path class="st18" d="M514.1,87.5v8.3L350.6,259.4v-8.3L514.1,87.5z"/>
</g>
<g class="st5">
	<path class="st6" d="M521.5,57.4v39.4c-0.6,0.1-1.2,0.1-1.8,0.1c-2.8,0-5.6-0.6-8.3-1.6c-2.6-1.1-5-2.7-7-4.7s-3.6-4.4-4.7-7
		s-1.6-5.4-1.6-8.3c0,5.7-2.3,11.2-6.3,15.3c-4,4.1-9.5,6.3-15.3,6.3c-5.7,0-11.2-2.3-15.3-6.3c-4-4.1-6.3-9.5-6.3-15.3
		c0,5.7-2.3,11.2-6.3,15.3c-4,4.1-9.5,6.3-15.3,6.3c-5.7,0-11.2-2.3-15.3-6.3c-4-4.1-6.3-9.5-6.3-15.3c0,5.7-2.3,11.2-6.3,15.3
		c-4,4.1-9.5,6.3-15.3,6.3c-5.7,0-11.2-2.3-15.3-6.3c-4-4.1-6.3-9.5-6.3-15.3c0,5.7-2.3,11.2-6.3,15.3c-4,4.1-9.5,6.3-15.3,6.3
		c-1.2,0-2.5-0.1-3.7-0.3V57.4H521.5z"/>
</g>
<path class="st19" d="M626.7,406H5.8c-1.3,0-2.5-0.5-3.4-1.5C1.5,403.6,1,402.3,1,401c0-0.7,0.1-1.3,0.4-1.9c0.2-0.6,0.6-1.2,1-1.6
	c0.4-0.5,1-0.8,1.6-1.1c0.6-0.3,1.2-0.4,1.8-0.4h620.9c1.3,0,2.5,0.5,3.4,1.5c0.9,0.9,1.4,2.2,1.4,3.5s-0.5,2.6-1.4,3.5
	C629.2,405.5,628,406,626.7,406z"/>
<path class="st3" d="M140.7,0l-4.2,38.4H93.3l7-38.4H140.7z"/>
<path class="st13" d="M179.7,38.4L181.1,0h-40.4l-4.2,38.4H179.7z"/>
<path class="st3" d="M222.9,38.4L221.5,0h-40.4l-1.4,38.4H222.9z"/>
<path class="st13" d="M266.1,38.4L261.9,0h-40.4l1.4,38.4H266.1z"/>
<path class="st3" d="M309.3,38.4h-43.2L261.9,0h40.4L309.3,38.4z"/>
<path class="st3" d="M93.3,38.4v17.9c0,2.8,0.6,5.6,1.6,8.3c1.1,2.6,2.7,5,4.7,7s4.4,3.6,7,4.7s5.4,1.6,8.3,1.6
	c5.7,0,11.2-2.3,15.3-6.3c4.1-4.1,6.3-9.5,6.3-15.3V38.4H93.3z"/>
<path class="st13" d="M136.5,38.4v17.9c0,2.8,0.6,5.6,1.6,8.3c1.1,2.6,2.7,5,4.7,7s4.4,3.6,7,4.7s5.4,1.6,8.3,1.6
	c5.7,0,11.2-2.3,15.3-6.3c4.1-4.1,6.3-9.5,6.3-15.3V38.4H136.5z"/>
<path class="st3" d="M179.7,38.4v17.9c0,5.7,2.3,11.2,6.3,15.3c4.1,4.1,9.5,6.3,15.3,6.3c2.8,0,5.6-0.6,8.3-1.6c2.6-1.1,5-2.7,7-4.7
	s3.6-4.4,4.7-7c1.1-2.6,1.6-5.4,1.6-8.3V38.4H179.7z"/>
<path class="st13" d="M222.9,38.4v17.9c0,5.7,2.3,11.2,6.3,15.3c4.1,4.1,9.5,6.3,15.3,6.3c2.8,0,5.6-0.6,8.3-1.6
	c2.6-1.1,5-2.7,7-4.7s3.6-4.4,4.7-7s1.6-5.4,1.6-8.3V38.4H222.9z"/>
<path class="st3" d="M266.1,38.4v17.9c0,2.8,0.6,5.6,1.6,8.3c1.1,2.6,2.7,5,4.7,7s4.4,3.6,7,4.7s5.4,1.6,8.3,1.6
	c5.7,0,11.2-2.3,15.3-6.3c4-4.1,6.3-9.5,6.3-15.3V38.4H266.1z"/>
<g class="st5">
	<path class="st7" d="M309.3,38.4h-216l7-38.4h202.1L309.3,38.4z"/>
</g>
<path class="st3" d="M372.7,0l-4.2,38.4h-43.2L332.2,0H372.7z"/>
<path class="st13" d="M411.7,38.4L413.1,0h-40.4l-4.2,38.4H411.7z"/>
<path class="st3" d="M454.9,38.4L453.5,0h-40.4l-1.4,38.4H454.9z"/>
<path class="st13" d="M498.1,38.4L493.9,0h-40.4l1.4,38.4H498.1z"/>
<path class="st3" d="M541.3,38.4h-43.2L493.9,0h40.4L541.3,38.4z"/>
<path class="st3" d="M325.3,38.4v17.9c0,2.8,0.6,5.6,1.6,8.3c1.1,2.6,2.7,5,4.7,7s4.4,3.6,7,4.7s5.4,1.6,8.3,1.6
	c2.8,0,5.6-0.6,8.3-1.6c2.6-1.1,5-2.7,7-4.7s3.6-4.4,4.7-7s1.6-5.4,1.6-8.3V38.4H325.3z"/>
<path class="st13" d="M368.5,38.4v17.9c0,5.7,2.3,11.2,6.3,15.3c4,4.1,9.5,6.3,15.3,6.3c2.8,0,5.6-0.6,8.3-1.6c2.6-1.1,5-2.7,7-4.7
	s3.6-4.4,4.7-7s1.6-5.4,1.6-8.3V38.4H368.5z"/>
<path class="st3" d="M411.7,38.4v17.9c0,5.7,2.3,11.2,6.3,15.3c4,4.1,9.5,6.3,15.3,6.3c2.8,0,5.6-0.6,8.3-1.6c2.6-1.1,5-2.7,7-4.7
	s3.6-4.4,4.7-7s1.6-5.4,1.6-8.3V38.4H411.7z"/>
<path class="st13" d="M454.9,38.4v17.9c0,2.8,0.6,5.6,1.6,8.3c1.1,2.6,2.7,5,4.7,7s4.4,3.6,7,4.7s5.4,1.6,8.3,1.6
	c5.7,0,11.2-2.3,15.3-6.3c4-4.1,6.3-9.5,6.3-15.3V38.4H454.9z"/>
<path class="st3" d="M498.1,38.4v17.9c0,2.8,0.6,5.6,1.6,8.3c1.1,2.6,2.7,5,4.7,7s4.4,3.6,7,4.7c2.6,1.1,5.4,1.6,8.3,1.6
	c5.7,0,11.2-2.3,15.3-6.3c4-4.1,6.3-9.5,6.3-15.3V38.4H498.1z"/>
<g class="st5">
	<path class="st7" d="M541.3,38.4h-216L332.2,0h202.1L541.3,38.4z"/>
</g>
<path class="st13" d="M466.3,114.2l-67.8,1.8l2.4,90l67.8-1.8L466.3,114.2z"/>
<path class="st20" d="M449.1,149.6c0.4,0.5,0.7,1,1,1.5c1.7,2.9,2.6,6.1,2.6,9.5c0,3.3-0.9,6.6-2.6,9.5l-0.5,0.8l-1,1.4l-1.2,1.3
	c-0.2,0.3-0.5,0.5-0.7,0.7s-0.4,0.3-0.6,0.5c-0.7,0.5-1.4,1-2.2,1.5l-0.8,0.5c-2.7,1.4-5.7,2.2-8.7,2.2s-6-0.8-8.7-2.2
	c-0.5-0.2-1-0.5-1.5-0.9l-1.4-1c-0.9-0.7-1.8-1.6-2.5-2.5c-0.4-0.5-0.7-0.9-1-1.5l-0.5-0.7l-0.9-1.6c-0.4-0.8-0.7-1.6-0.9-2.5
	c-0.5-1.8-0.8-3.6-0.9-5.4c0-1.2,0.2-2.5,0.4-3.7c0.5-2.6,1.6-5.1,3.3-7.2c0.5-0.7,1.1-1.4,1.7-2l0.6-0.6l1.4-1.1l1.5-0.9l0.8-0.4
	c2.7-1.5,5.7-2.3,8.7-2.2c3,0,6,0.8,8.7,2.2l0.8,0.4l1.4,0.9l1.4,1.1l0.6,0.6C448.1,148.2,448.6,148.8,449.1,149.6z M441.3,162.6
	l6.7-6.6l-9.3-1.4l-4.1-8.4l-4.2,8.4L421,156l6.7,6.6l-1.6,9.3l8.3-4.4l8.4,4.4L441.3,162.6z"/>
<path class="st4" d="M403.4,113l2.3,1.3l-9.2,9.5l-1-2.3L403.4,113z"/>
<path class="st4" d="M470.1,197.8l2.3,1.3l-9.2,9.5l-1-2.3L470.1,197.8z"/>
<path class="st4" d="M469.9,118.2l-1,2.4l-10.5-8.1l2.2-1.3L469.9,118.2z"/>
<path class="st4" d="M408.1,206.1l-1,2.4l-10.5-8.1l2.2-1.3L408.1,206.1z"/>
<path class="st21" d="M387.7,129.4c0,0,0.4,36.3,0,44.8c-0.3,5.9-43.3,3.8-43.3,3.8l-0.4-17.4l32.8,3.8l4.8-37.4L387.7,129.4z"/>
<path class="st22" d="M341.6,159.4l28.8,3.7c0,0,4.7,5.6-1.3,21.4c0,0-20.3,0-24,6.1L341.6,159.4z"/>
<path class="st21" d="M233.7,239c1.1-1.1,2.3-2,3.6-2.9c2.6-1.1,4.1-1.8,5-3c0.7-0.9,3.3-1.4,3.3-1.4s1.1-4-2-6.5
	c-0.9,0.4-1.8,0.6-2.8,0.6c-1.4-0.4-2.5-2.2-5.2-2.4c-2-0.2-4-0.7-5.9-1.6c-0.1,0.1-0.3,0.2-0.4,0.4c-0.1,0.2-0.1,0.3-0.2,0.5
	c0,0.2,0,0.4,0.1,0.5c0.1,0.2,0.2,0.3,0.3,0.4c1.1,0.9,3.2,1.2,3.6,1.7c0.1,0.1,0.1,0.2,0.2,0.3l0,0c0.1,0.2,0.1,0.4,0.1,0.6
	c0,0.2-0.1,0.4-0.2,0.6v0.1c-0.9,1.3-4.3,2.3-5.8,2.6c-2.1,0.4-5.1,1.2-4.3,2.4s1.7-0.3,6.6-0.4l0.2,0.5c0.4,0-2.6,1.6-5.6,2.5
	c-2,0.6-0.9,1.8-0.2,1.9c0.7,0.1,2.7-0.8,4.1-1.2c1-0.3,2-0.6,2.6-0.8l0.4,0.5c-3.1,2.9-4.7,2.5-4.5,3.7s3.1,0.1,4.1-0.8
	c0.7-0.5,1.5-1,2.4-1.3c-1.9,2.7-3.3,2.7-2.9,3.6C230.8,241.4,233,239.9,233.7,239z"/>
<path class="st23" d="M237.1,228.6c-2.1-0.3-3.6-2.6-3.8-2.9c0.1,0.2,0.1,0.4,0.1,0.6c0,0.2-0.1,0.4-0.2,0.6c0.4,0.6,1,1.1,1.7,1.4
	S236.4,228.8,237.1,228.6z"/>
<path class="st21" d="M287.2,172.6c0,0-0.8,0.3-2.5,3.1s-11.3,35.9-11.3,35.9s-17.2,8.8-29.8,13.6l0.8,6.8c0,0,34-8.1,36.5-8.7
	c2.5-0.6,14.1-29.7,14.1-29.7L287.2,172.6z"/>
<path class="st22" d="M291.5,162.9c0,0-3.3,0-13.6,29.1l-2.7,7.2c0,0,5.8,9.1,16.3,8.8l8.5-14.4L291.5,162.9z"/>
<path class="st22" d="M257.5,394.4c0,0.6,0,1.2,0.1,1.7H287c0-0.6,0-1.2,0-1.7c-0.3-4.9-1.2-9.7-2.8-14.4l-7.4-3.2
	c-0.4,3.1-1.9,5.9-4.3,7.8c-0.5,0.4-1.1,0.8-1.7,1.1c-0.3,0.1-0.5,0.3-0.8,0.4c-0.6,0.3-1.2,0.5-1.9,0.7c-2.3,0.6-4.7,1-7.1,1.2
	C257.9,388.6,257.5,392.2,257.5,394.4z"/>
<path class="st24" d="M257.5,394.4c0,0.6,0,1.2,0.1,1.7H287c0-0.6,0-1.2,0-1.7H257.5z"/>
<path class="st24" d="M270.8,385.7l4.1,1.3l0.9-1.5l-3.3-0.9C272,385.1,271.4,385.4,270.8,385.7z"/>
<path class="st24" d="M268.1,386.8l2.8,1.8l1.7-0.7L270,386C269.4,386.4,268.8,386.6,268.1,386.8z"/>
<path class="st22" d="M309.7,394.4c0,0.6,0.2,1.2,0.3,1.7h19.6c0.2-0.6,0.4-1.1,0.6-1.7c1.9-9.4-11.1-20.9-11.1-20.9L315,379
	c0,0,0.5,8.8-3,10.7c-0.8,0.5-1.5,1.1-1.9,2C309.7,392.5,309.6,393.5,309.7,394.4z"/>
<path class="st24" d="M330.2,394.4h-20.5c0,0.6,0.2,1.2,0.3,1.7h19.6C329.9,395.6,330.1,395,330.2,394.4z"/>
<path class="st24" d="M312.8,389c0,0,8.3-1.9,12,0.6v-1.4C324.9,388.2,317.9,384.8,312.8,389z"/>
<path class="st24" d="M314.5,386.9c0,0,5.3-2.4,10.4,0l-0.6-1.4C324.3,385.5,318.2,383.2,314.5,386.9z"/>
<path class="st25" d="M342.5,242.6c0,18.7-1.8,37.7-2.3,42.5s-5.5,58.7-6.2,79.5c-0.4,10.7-3.8,23.6-3.8,23.6s-10.2-8.2-15.9-2.1
	l-1.4-8.3l2.7-6.6c0,0-2.9-5.4-0.5-9.6s3.1-94.3,3.1-94.3l-4.5-0.3L290,371.2v5.9c0,0-2.9,7.6-2.9,12.4l-15.4-4.9l2.4-6.8l-0.6-9.8
	l4.3-12.7c0,0,16-99.6,14.8-110.8L342.5,242.6z"/>
<path class="st13" d="M291.5,162.9c8.7-2.4,17.7-3.8,26.7-4.1c11-0.5,29.5,1.2,29.5,1.2c2.3,5.3-4,96.9-4,96.9s-28.7,2-53.3-3.7
	c0,0,3.7-30.2,3.1-50.9C292.9,181.6,291.5,162.9,291.5,162.9z"/>
<path class="st23" d="M313.4,151c0,0,1.5,6.2-0.8,8.7c0,0,6.2,7.3,12.2-0.1c0,0-1.6-4.1,0-6.7L313.4,151z"/>
<path class="st21" d="M330,139.9c0,0,3.2-3.2,3.6,0.5c0.5,4.3-3.4,6-4.2,4.7C328.5,143.7,330,139.9,330,139.9z"/>
<path class="st21" d="M307.7,140.1c0,0-3.2-3.2-3.6,0.5c-0.5,4.3,3.5,6,4.2,4.7C309.1,144,307.7,140.1,307.7,140.1z"/>
<path class="st21" d="M319.2,155.5c7.1,0,11-4.6,11-18.4c0-7.1-3.6-11.5-11.5-11.5s-11.2,4.4-11.2,11.5
	C307.4,151.9,311.9,155.5,319.2,155.5z"/>
<path class="st26" d="M309.8,142c-0.1,0.3-0.2,0.7-0.1,1s0.3,0.6,0.5,0.9c0.3,0.2,0.6,0.4,0.9,0.4s0.7,0,1-0.2s0.5-0.4,0.7-0.7
	s0.2-0.7,0.1-1s-0.2-0.7-0.5-0.9c-0.2-0.2-0.6-0.4-0.9-0.5c-0.4-0.1-0.8-0.1-1.1,0.1C310.1,141.3,309.9,141.6,309.8,142z"/>
<path class="st26" d="M324.3,142.4c-0.1,0.3,0,0.7,0.2,1s0.4,0.6,0.7,0.7c0.3,0.2,0.7,0.2,1,0.2s0.7-0.2,0.9-0.4
	c0.3-0.2,0.4-0.5,0.5-0.9c0.1-0.3,0-0.7-0.1-1s-0.4-0.6-0.7-0.8c-0.3-0.2-0.6-0.3-1-0.2c-0.4,0-0.8,0.1-1.1,0.4
	C324.5,141.6,324.3,142,324.3,142.4z"/>
<path class="st27" d="M312.1,134.7h0.1c0,0,0.1,0,0.1-0.1c0.8-0.5,1.9-0.7,2.8-0.6c0.1,0,0.2,0,0.3-0.1c0.1-0.1,0.1-0.1,0.1-0.2
	v-0.1c0,0,0-0.1-0.1-0.1l-0.1-0.1c0,0-0.1,0-0.1-0.1c-1.2-0.2-2.4,0-3.4,0.7l-0.1,0.1v0.1v0.1c0,0,0,0.1,0.1,0.1
	C311.9,134.6,312,134.7,312.1,134.7z"/>
<path class="st27" d="M325.6,134.7c0.1,0,0.1,0,0.2-0.1c0.1,0,0.1-0.1,0.1-0.2c0-0.1,0-0.1,0-0.2c0-0.1-0.1-0.1-0.1-0.2
	c-1-0.7-2.2-1-3.4-0.8c-0.1,0-0.2,0.1-0.2,0.1s-0.1,0.2-0.1,0.3s0.1,0.2,0.1,0.2c0.1,0.1,0.2,0.1,0.3,0.1c1-0.1,2,0.1,2.8,0.6
	l0.1,0.1C325.5,134.7,325.5,134.7,325.6,134.7z"/>
<path class="st28" d="M312.8,138.7c0,0.9,0.4,1.6,0.9,1.6s0.9-0.7,0.9-1.6c0-0.9-0.4-1.6-0.9-1.6
	C313.2,137.1,312.8,137.8,312.8,138.7z"/>
<path class="st28" d="M322.2,138.7c0,0.9,0.4,1.6,0.9,1.6s0.9-0.7,0.9-1.6c0-0.9-0.4-1.6-0.9-1.6
	C322.6,137.1,322.2,137.8,322.2,138.7z"/>
<path class="st28" d="M327.1,128.9c0,0-4.9-0.3-15.7-1.1c0,0-3.9,4.1-3.7,14.2c0,0-6.3-18.2,12.1-18.2s10.1,17.8,10.1,17.8
	S330.5,132.3,327.1,128.9z"/>
<path class="st26" d="M318.7,143.3l0.5-0.5l-1.4-1.4c1.4-1.9,1.3-6.3,1.3-6.5h-0.8c0,0,0,4.8-1.4,6.3l-0.2,0.3L318.7,143.3z"/>
<path class="st28" d="M323.4,145.6c0,0-6.9,0.3-10.4-0.6c-0.1,0.7,0,1.4,0.2,2c0.2,0.7,0.5,1.2,1,1.8c0.5,0.5,1,0.9,1.6,1.2
	s1.3,0.4,2,0.4C323.4,150.5,323.4,145.6,323.4,145.6z"/>
<path class="st28" d="M329.1,123.8c0,0-2.6-4.3-10.9-4.2c-7.6,0.1-11.6,3.7-11.8,7.8c-0.2,4.1,5.9,4.8,5.9,4.8s-1.7-1-1.7-1.9
	c2.7,1.5,5.7,2.1,8.7,1.9l-2.4-1.5c0,0,7.1,1.6,11.2-0.4c0,0,3.2,1.5,3.8,3.8c0.8-0.8,1.4-1.8,1.7-2.9c0.3-1.1,0.3-2.3,0-3.4
	c-0.3-1-0.8-1.9-1.6-2.6S330.1,123.9,329.1,123.8z"/>
<path class="st4" d="M338.4,174.5c0,0,1.3-13.1,2.5-15.8h-3.6c-1.4,5.1-2.3,10.4-2.5,15.8H338.4z"/>
<path class="st4" d="M302.3,160c0,0-1.2,7.6,0,14h-4.5c0,0-0.1-10.8,0.8-13.4L302.3,160z"/>
<path class="st15" d="M338.8,171.1c0,0-25.2,4-40.8,1.5l-2.4,47.3l-2.7,3.4l-0.9,14.2l2.4,1l-1.5,56.9c0,0,12.6-0.7,44.7-1l4.2-56.2
	c1.5-0.2,2.9-0.7,4.2-1.5v-12.3l-5.3-3.9C340.4,220.4,337.8,184.2,338.8,171.1z"/>
<path class="st4" d="M329.6,199.4c0.1-7.1-5.1-12.9-11.7-13.1c-6.6-0.1-12.1,5.5-12.2,12.6s5.1,12.9,11.7,13.1
	C324.1,212.2,329.5,206.5,329.6,199.4z"/>
<path class="st25" d="M317.7,206.7c-0.6,0-1.1-0.1-1.7-0.2c-2.4-0.7-4.3-2.9-4.4-4.3c0-0.1,0-0.1,0-0.2c0-0.1,0.1-0.1,0.1-0.2
	c0,0,0.1-0.1,0.2-0.1s0.1,0,0.2,0s0.3,0,0.4,0.1s0.2,0.2,0.2,0.3c0,0.8,1.5,2.7,3.6,3.4c1.6,0.5,4,0.4,6.3-2.9
	c0.1-0.1,0.2-0.2,0.3-0.2c0.1,0,0.3,0,0.4,0.1s0.2,0.2,0.2,0.3s0,0.3-0.1,0.4C321.4,206,319.3,206.7,317.7,206.7z"/>
<path class="st25" d="M322.5,196.3c0,0.7-0.3,1.3-0.7,1.3s-0.7-0.6-0.7-1.3s0.3-1.3,0.7-1.3S322.5,195.5,322.5,196.3z"/>
<path class="st25" d="M314.5,196.1c0,0.7-0.3,1.3-0.7,1.3c-0.4,0-0.7-0.6-0.7-1.3s0.3-1.3,0.7-1.3S314.5,195.4,314.5,196.1z"/>
<path class="st21" d="M380.9,128.1c0.6,0.6,6.1,2.1,7.3,1.4c1.4-0.8,1.9-2.5,3-5.1c0.8-1.3,1.8-2.5,2.8-3.6c0.9-0.7,2.3-2.9,1.4-3.3
	s-1,1-3.6,2.9c0.3-0.8,0.8-1.6,1.3-2.4c0.9-1,2-3.9,0.8-4.1s-0.8,1.4-3.7,4.6l-0.5-0.4c0.2-0.6,0.5-1.6,0.8-2.6
	c0.4-1.5,1.3-3.4,1.2-4.1c-0.2-0.7-1.3-1.8-1.9,0.2c-0.9,2.9-2.5,5.9-2.5,5.6l-0.5-0.2c0-4.9,1.5-5.8,0.3-6.6
	c-1.2-0.8-1.9,2.1-2.3,4.3c-0.3,1.5-1.3,4.9-2.6,5.9h-0.1c-0.2,0.1-0.4,0.2-0.6,0.2s-0.4,0-0.6-0.1l0,0c-0.1,0-0.2-0.1-0.3-0.2
	c-0.6-0.3-0.8-2.5-1.7-3.5c-0.1-0.1-0.3-0.2-0.4-0.3c-0.2-0.1-0.3-0.1-0.5-0.1s-0.3,0.1-0.5,0.2s-0.3,0.2-0.4,0.4
	c0.8,1.9,1.4,3.9,1.6,5.9C378.6,124.9,379.5,126.8,380.9,128.1z"/>
<path class="st23" d="M383.7,124.4c-0.3-2.1-2.6-3.6-2.9-3.7c0.2,0.1,0.4,0.1,0.6,0.1s0.4-0.1,0.6-0.2c0.6,0.4,1.1,1,1.4,1.6
	C383.8,122.9,383.8,123.6,383.7,124.4z"/>
</svg>
